solid Default
  facet normal -1.000000e+00 0.000000e+00 0.000000e+00
    outer loop
      vertex -3.680894e+01 -2.294425e+01 2.288380e+01
      vertex -3.680894e+01 -5.068592e+00 1.188048e+01
      vertex -3.680894e+01 -2.294425e+01 0.000000e+00
    endloop
  endfacet
  facet normal -1.000000e+00 0.000000e+00 0.000000e+00
    outer loop
      vertex -3.680894e+01 -5.068592e+00 1.188048e+01
      vertex -3.680894e+01 -2.294425e+01 2.288380e+01
      vertex -3.680894e+01 2.294425e+01 2.288380e+01
    endloop
  endfacet
  facet normal -1.000000e+00 0.000000e+00 0.000000e+00
    outer loop
      vertex -3.680894e+01 -5.068592e+00 1.188048e+01
      vertex -3.680894e+01 2.294425e+01 2.288380e+01
      vertex -3.680894e+01 3.845399e+00 1.188048e+01
    endloop
  endfacet
  facet normal -1.000000e+00 0.000000e+00 0.000000e+00
    outer loop
      vertex -3.680894e+01 3.845399e+00 1.188048e+01
      vertex -3.680894e+01 2.294425e+01 2.288380e+01
      vertex -3.680894e+01 3.845399e+00 6.821576e+00
    endloop
  endfacet
  facet normal -1.000000e+00 0.000000e+00 0.000000e+00
    outer loop
      vertex -3.680894e+01 -2.294425e+01 0.000000e+00
      vertex -3.680894e+01 -5.068592e+00 6.821576e+00
      vertex -3.680894e+01 2.294425e+01 0.000000e+00
    endloop
  endfacet
  facet normal -1.000000e+00 0.000000e+00 0.000000e+00
    outer loop
      vertex -3.680894e+01 -5.068592e+00 6.821576e+00
      vertex -3.680894e+01 -2.294425e+01 0.000000e+00
      vertex -3.680894e+01 -5.068592e+00 1.188048e+01
    endloop
  endfacet
  facet normal -1.000000e+00 0.000000e+00 0.000000e+00
    outer loop
      vertex -3.680894e+01 2.294425e+01 0.000000e+00
      vertex -3.680894e+01 -5.068592e+00 6.821576e+00
      vertex -3.680894e+01 3.845399e+00 6.821576e+00
    endloop
  endfacet
  facet normal -1.000000e+00 0.000000e+00 0.000000e+00
    outer loop
      vertex -3.680894e+01 2.294425e+01 0.000000e+00
      vertex -3.680894e+01 3.845399e+00 6.821576e+00
      vertex -3.680894e+01 2.294425e+01 2.288380e+01
    endloop
  endfacet
  facet normal 1.000000e+00 0.000000e+00 0.000000e+00
    outer loop
      vertex -3.142213e+01 -2.038534e+01 3.086913e+00
      vertex -3.142213e+01 -5.068592e+00 6.821576e+00
      vertex -3.142213e+01 -2.038534e+01 2.288380e+01
    endloop
  endfacet
  facet normal 1.000000e+00 0.000000e+00 0.000000e+00
    outer loop
      vertex -3.142213e+01 -5.068592e+00 6.821576e+00
      vertex -3.142213e+01 -2.038534e+01 3.086913e+00
      vertex -3.142213e+01 2.055141e+01 3.086913e+00
    endloop
  endfacet
  facet normal 1.000000e+00 0.000000e+00 0.000000e+00
    outer loop
      vertex -3.142213e+01 -2.038534e+01 2.288380e+01
      vertex -3.142213e+01 -5.068592e+00 6.821576e+00
      vertex -3.142213e+01 -5.068592e+00 1.188048e+01
    endloop
  endfacet
  facet normal 1.000000e+00 0.000000e+00 0.000000e+00
    outer loop
      vertex -3.142213e+01 -5.068592e+00 6.821576e+00
      vertex -3.142213e+01 2.055141e+01 3.086913e+00
      vertex -3.142213e+01 3.845399e+00 6.821576e+00
    endloop
  endfacet
  facet normal 1.000000e+00 0.000000e+00 0.000000e+00
    outer loop
      vertex -3.142213e+01 -5.068592e+00 1.188048e+01
      vertex -3.142213e+01 2.055141e+01 2.288380e+01
      vertex -3.142213e+01 -2.038534e+01 2.288380e+01
    endloop
  endfacet
  facet normal 1.000000e+00 0.000000e+00 0.000000e+00
    outer loop
      vertex -3.142213e+01 2.055141e+01 2.288380e+01
      vertex -3.142213e+01 -5.068592e+00 1.188048e+01
      vertex -3.142213e+01 3.845399e+00 1.188048e+01
    endloop
  endfacet
  facet normal 1.000000e+00 0.000000e+00 0.000000e+00
    outer loop
      vertex -3.142213e+01 2.055141e+01 2.288380e+01
      vertex -3.142213e+01 3.845399e+00 1.188048e+01
      vertex -3.142213e+01 3.845399e+00 6.821576e+00
    endloop
  endfacet
  facet normal 1.000000e+00 0.000000e+00 0.000000e+00
    outer loop
      vertex -3.142213e+01 2.055141e+01 2.288380e+01
      vertex -3.142213e+01 3.845399e+00 6.821576e+00
      vertex -3.142213e+01 2.055141e+01 3.086913e+00
    endloop
  endfacet
  facet normal 0.000000e+00 1.000000e+00 0.000000e+00
    outer loop
      vertex -1.342235e+01 -2.039127e+01 6.645994e+00
      vertex -4.963269e-01 -2.038534e+01 6.368443e+00
      vertex -1.433922e+01 -2.039127e+01 6.323042e+00
    endloop
  endfacet
  facet normal 0.000000e+00 1.000000e+00 0.000000e+00
    outer loop
      vertex -4.963269e-01 -2.038534e+01 6.368443e+00
      vertex -1.342235e+01 -2.039127e+01 6.645994e+00
      vertex -1.427605e+00 -2.038534e+01 6.491048e+00
    endloop
  endfacet
  facet normal 0.000000e+00 1.000000e+00 0.000000e+00
    outer loop
      vertex -1.427605e+00 -2.038534e+01 6.491048e+00
      vertex -1.342235e+01 -2.039127e+01 6.645994e+00
      vertex -2.295418e+00 -2.038534e+01 6.850508e+00
    endloop
  endfacet
  facet normal 0.000000e+00 1.000000e+00 0.000000e+00
    outer loop
      vertex -2.295418e+00 -2.038534e+01 6.850508e+00
      vertex -1.342235e+01 -2.039127e+01 6.645994e+00
      vertex -1.262033e+01 -2.039127e+01 7.195242e+00
    endloop
  endfacet
  facet normal 0.000000e+00 1.000000e+00 0.000000e+00
    outer loop
      vertex -2.295418e+00 -2.038534e+01 6.850508e+00
      vertex -1.262033e+01 -2.039127e+01 7.195242e+00
      vertex -3.040624e+00 -2.038534e+01 7.422326e+00
    endloop
  endfacet
  facet normal 0.000000e+00 1.000000e+00 0.000000e+00
    outer loop
      vertex -3.040624e+00 -2.038534e+01 7.422326e+00
      vertex -1.262033e+01 -2.039127e+01 7.195242e+00
      vertex -1.198779e+01 -2.039127e+01 7.933355e+00
    endloop
  endfacet
  facet normal 0.000000e+00 1.000000e+00 0.000000e+00
    outer loop
      vertex -3.040624e+00 -2.038534e+01 7.422326e+00
      vertex -1.198779e+01 -2.039127e+01 7.933355e+00
      vertex -3.612440e+00 -2.038534e+01 8.167534e+00
    endloop
  endfacet
  facet normal 0.000000e+00 1.000000e+00 0.000000e+00
    outer loop
      vertex -3.612440e+00 -2.038534e+01 8.167534e+00
      vertex -1.198779e+01 -2.039127e+01 7.933355e+00
      vertex -1.156783e+01 -2.039127e+01 8.810032e+00
    endloop
  endfacet
  facet normal 0.000000e+00 1.000000e+00 0.000000e+00
    outer loop
      vertex -3.612440e+00 -2.038534e+01 8.167534e+00
      vertex -1.156783e+01 -2.039127e+01 8.810032e+00
      vertex -3.971902e+00 -2.038534e+01 9.035347e+00
    endloop
  endfacet
  facet normal 0.000000e+00 1.000000e+00 0.000000e+00
    outer loop
      vertex -3.971902e+00 -2.038534e+01 9.035347e+00
      vertex -1.156783e+01 -2.039127e+01 8.810032e+00
      vertex -1.138908e+01 -2.039127e+01 9.765529e+00
    endloop
  endfacet
  facet normal 0.000000e+00 1.000000e+00 0.000000e+00
    outer loop
      vertex -3.971902e+00 -2.038534e+01 9.035347e+00
      vertex -1.138908e+01 -2.039127e+01 9.765529e+00
      vertex -4.094508e+00 -2.038534e+01 9.966625e+00
    endloop
  endfacet
  facet normal 0.000000e+00 1.000000e+00 0.000000e+00
    outer loop
      vertex -4.094508e+00 -2.038534e+01 9.966625e+00
      vertex -1.138908e+01 -2.039127e+01 9.765529e+00
      vertex -1.146374e+01 -2.039127e+01 1.073473e+01
    endloop
  endfacet
  facet normal 0.000000e+00 1.000000e+00 0.000000e+00
    outer loop
      vertex -4.094508e+00 -2.038534e+01 9.966625e+00
      vertex -1.146374e+01 -2.039127e+01 1.073473e+01
      vertex -3.971902e+00 -2.038534e+01 1.089790e+01
    endloop
  endfacet
  facet normal 0.000000e+00 1.000000e+00 0.000000e+00
    outer loop
      vertex -3.971902e+00 -2.038534e+01 1.089790e+01
      vertex -1.146374e+01 -2.039127e+01 1.073473e+01
      vertex -1.178669e+01 -2.039127e+01 1.165159e+01
    endloop
  endfacet
  facet normal 0.000000e+00 1.000000e+00 0.000000e+00
    outer loop
      vertex -3.971902e+00 -2.038534e+01 1.089790e+01
      vertex -1.178669e+01 -2.039127e+01 1.165159e+01
      vertex -3.612440e+00 -2.038534e+01 1.176572e+01
    endloop
  endfacet
  facet normal 0.000000e+00 1.000000e+00 0.000000e+00
    outer loop
      vertex -3.612440e+00 -2.038534e+01 1.176572e+01
      vertex -1.178669e+01 -2.039127e+01 1.165159e+01
      vertex -1.233594e+01 -2.039127e+01 1.245361e+01
    endloop
  endfacet
  facet normal 0.000000e+00 1.000000e+00 0.000000e+00
    outer loop
      vertex -3.612440e+00 -2.038534e+01 1.176572e+01
      vertex -1.233594e+01 -2.039127e+01 1.245361e+01
      vertex -3.040624e+00 -2.038534e+01 1.251092e+01
    endloop
  endfacet
  facet normal 0.000000e+00 1.000000e+00 0.000000e+00
    outer loop
      vertex -3.040624e+00 -2.038534e+01 1.251092e+01
      vertex -1.233594e+01 -2.039127e+01 1.245361e+01
      vertex -1.307405e+01 -2.039127e+01 1.308616e+01
    endloop
  endfacet
  facet normal 0.000000e+00 1.000000e+00 0.000000e+00
    outer loop
      vertex -3.040624e+00 -2.038534e+01 1.251092e+01
      vertex -1.307405e+01 -2.039127e+01 1.308616e+01
      vertex -2.295418e+00 -2.038534e+01 1.308274e+01
    endloop
  endfacet
  facet normal 0.000000e+00 1.000000e+00 0.000000e+00
    outer loop
      vertex -2.295418e+00 -2.038534e+01 1.308274e+01
      vertex -1.307405e+01 -2.039127e+01 1.308616e+01
      vertex -1.427605e+00 -2.038534e+01 1.344220e+01
    endloop
  endfacet
  facet normal 0.000000e+00 1.000000e+00 0.000000e+00
    outer loop
      vertex -1.427605e+00 -2.038534e+01 1.344220e+01
      vertex -1.307405e+01 -2.039127e+01 1.308616e+01
      vertex -1.395073e+01 -2.039127e+01 1.350611e+01
    endloop
  endfacet
  facet normal 0.000000e+00 1.000000e+00 0.000000e+00
    outer loop
      vertex -1.427605e+00 -2.038534e+01 1.344220e+01
      vertex -1.395073e+01 -2.039127e+01 1.350611e+01
      vertex -4.963269e-01 -2.038534e+01 1.356481e+01
    endloop
  endfacet
  facet normal 0.000000e+00 1.000000e+00 0.000000e+00
    outer loop
      vertex -4.963269e-01 -2.038534e+01 1.356481e+01
      vertex -1.395073e+01 -2.039127e+01 1.350611e+01
      vertex -1.490623e+01 -2.039127e+01 1.368486e+01
    endloop
  endfacet
  facet normal 0.000000e+00 1.000000e+00 0.000000e+00
    outer loop
      vertex -3.142213e+01 -2.038534e+01 3.086913e+00
      vertex -1.530842e+01 -2.039127e+01 6.248394e+00
      vertex 3.144782e+01 -2.038534e+01 3.086913e+00
    endloop
  endfacet
  facet normal 0.000000e+00 1.000000e+00 0.000000e+00
    outer loop
      vertex -1.530842e+01 -2.039127e+01 6.248394e+00
      vertex -3.142213e+01 -2.038534e+01 3.086913e+00
      vertex -1.626391e+01 -2.039127e+01 6.427137e+00
    endloop
  endfacet
  facet normal 0.000000e+00 1.000000e+00 0.000000e+00
    outer loop
      vertex -1.626391e+01 -2.039127e+01 6.427137e+00
      vertex -3.142213e+01 -2.038534e+01 3.086913e+00
      vertex -1.714059e+01 -2.039127e+01 6.847091e+00
    endloop
  endfacet
  facet normal 0.000000e+00 1.000000e+00 0.000000e+00
    outer loop
      vertex -1.714059e+01 -2.039127e+01 6.847091e+00
      vertex -3.142213e+01 -2.038534e+01 3.086913e+00
      vertex -1.787871e+01 -2.039127e+01 7.479635e+00
    endloop
  endfacet
  facet normal 0.000000e+00 1.000000e+00 0.000000e+00
    outer loop
      vertex -1.787871e+01 -2.039127e+01 7.479635e+00
      vertex -3.142213e+01 -2.038534e+01 3.086913e+00
      vertex -3.142213e+01 -2.038534e+01 2.288380e+01
    endloop
  endfacet
  facet normal 0.000000e+00 1.000000e+00 0.000000e+00
    outer loop
      vertex -1.787871e+01 -2.039127e+01 7.479635e+00
      vertex -3.142213e+01 -2.038534e+01 2.288380e+01
      vertex -1.842795e+01 -2.039127e+01 8.281664e+00
    endloop
  endfacet
  facet normal 0.000000e+00 1.000000e+00 0.000000e+00
    outer loop
      vertex -1.842795e+01 -2.039127e+01 8.281664e+00
      vertex -3.142213e+01 -2.038534e+01 2.288380e+01
      vertex -1.875091e+01 -2.039127e+01 9.198520e+00
    endloop
  endfacet
  facet normal 0.000000e+00 1.000000e+00 0.000000e+00
    outer loop
      vertex -1.875091e+01 -2.039127e+01 9.198520e+00
      vertex -3.142213e+01 -2.038534e+01 2.288380e+01
      vertex -1.882555e+01 -2.039127e+01 1.016772e+01
    endloop
  endfacet
  facet normal 0.000000e+00 1.000000e+00 0.000000e+00
    outer loop
      vertex -1.882555e+01 -2.039127e+01 1.016772e+01
      vertex -3.142213e+01 -2.038534e+01 2.288380e+01
      vertex -1.864681e+01 -2.039127e+01 1.112322e+01
    endloop
  endfacet
  facet normal 0.000000e+00 1.000000e+00 0.000000e+00
    outer loop
      vertex -1.864681e+01 -2.039127e+01 1.112322e+01
      vertex -3.142213e+01 -2.038534e+01 2.288380e+01
      vertex -1.822686e+01 -2.039127e+01 1.199990e+01
    endloop
  endfacet
  facet normal 0.000000e+00 1.000000e+00 0.000000e+00
    outer loop
      vertex -1.822686e+01 -2.039127e+01 1.199990e+01
      vertex -3.142213e+01 -2.038534e+01 2.288380e+01
      vertex -1.759431e+01 -2.039127e+01 1.273801e+01
    endloop
  endfacet
  facet normal 0.000000e+00 1.000000e+00 0.000000e+00
    outer loop
      vertex -1.759431e+01 -2.039127e+01 1.273801e+01
      vertex -3.142213e+01 -2.038534e+01 2.288380e+01
      vertex -1.679228e+01 -2.039127e+01 1.328726e+01
    endloop
  endfacet
  facet normal 0.000000e+00 1.000000e+00 0.000000e+00
    outer loop
      vertex -1.679228e+01 -2.039127e+01 1.328726e+01
      vertex -3.142213e+01 -2.038534e+01 2.288380e+01
      vertex -1.587543e+01 -2.039127e+01 1.361021e+01
    endloop
  endfacet
  facet normal 0.000000e+00 1.000000e+00 0.000000e+00
    outer loop
      vertex -1.587543e+01 -2.039127e+01 1.361021e+01
      vertex -3.142213e+01 -2.038534e+01 2.288380e+01
      vertex -1.490623e+01 -2.039127e+01 1.368486e+01
    endloop
  endfacet
  facet normal 0.000000e+00 1.000000e+00 0.000000e+00
    outer loop
      vertex 3.144782e+01 -2.038534e+01 3.086913e+00
      vertex 1.302764e+00 -2.038534e+01 6.850508e+00
      vertex 3.144782e+01 -2.038534e+01 2.288380e+01
    endloop
  endfacet
  facet normal 0.000000e+00 1.000000e+00 0.000000e+00
    outer loop
      vertex 1.302764e+00 -2.038534e+01 6.850508e+00
      vertex 3.144782e+01 -2.038534e+01 3.086913e+00
      vertex 4.349510e-01 -2.038534e+01 6.491048e+00
    endloop
  endfacet
  facet normal 0.000000e+00 1.000000e+00 0.000000e+00
    outer loop
      vertex 4.349510e-01 -2.038534e+01 6.491048e+00
      vertex 3.144782e+01 -2.038534e+01 3.086913e+00
      vertex -4.963269e-01 -2.038534e+01 6.368443e+00
    endloop
  endfacet
  facet normal 0.000000e+00 1.000000e+00 0.000000e+00
    outer loop
      vertex -4.963269e-01 -2.038534e+01 6.368443e+00
      vertex 3.144782e+01 -2.038534e+01 3.086913e+00
      vertex -1.530842e+01 -2.039127e+01 6.248394e+00
    endloop
  endfacet
  facet normal 0.000000e+00 1.000000e+00 0.000000e+00
    outer loop
      vertex -4.963269e-01 -2.038534e+01 6.368443e+00
      vertex -1.530842e+01 -2.039127e+01 6.248394e+00
      vertex -1.433922e+01 -2.039127e+01 6.323042e+00
    endloop
  endfacet
  facet normal 0.000000e+00 1.000000e+00 0.000000e+00
    outer loop
      vertex 3.144782e+01 -2.038534e+01 2.288380e+01
      vertex 1.302764e+00 -2.038534e+01 6.850508e+00
      vertex 2.047970e+00 -2.038534e+01 7.422326e+00
    endloop
  endfacet
  facet normal 0.000000e+00 1.000000e+00 0.000000e+00
    outer loop
      vertex 3.144782e+01 -2.038534e+01 2.288380e+01
      vertex 2.047970e+00 -2.038534e+01 7.422326e+00
      vertex 2.619786e+00 -2.038534e+01 8.167534e+00
    endloop
  endfacet
  facet normal 0.000000e+00 1.000000e+00 0.000000e+00
    outer loop
      vertex 3.144782e+01 -2.038534e+01 2.288380e+01
      vertex 2.619786e+00 -2.038534e+01 8.167534e+00
      vertex 2.979248e+00 -2.038534e+01 9.035347e+00
    endloop
  endfacet
  facet normal 0.000000e+00 1.000000e+00 0.000000e+00
    outer loop
      vertex 3.144782e+01 -2.038534e+01 2.288380e+01
      vertex 2.979248e+00 -2.038534e+01 9.035347e+00
      vertex 3.101855e+00 -2.038534e+01 9.966625e+00
    endloop
  endfacet
  facet normal 0.000000e+00 1.000000e+00 0.000000e+00
    outer loop
      vertex 3.144782e+01 -2.038534e+01 2.288380e+01
      vertex 3.101855e+00 -2.038534e+01 9.966625e+00
      vertex 2.979248e+00 -2.038534e+01 1.089790e+01
    endloop
  endfacet
  facet normal 0.000000e+00 1.000000e+00 0.000000e+00
    outer loop
      vertex 3.144782e+01 -2.038534e+01 2.288380e+01
      vertex 2.979248e+00 -2.038534e+01 1.089790e+01
      vertex 2.619786e+00 -2.038534e+01 1.176572e+01
    endloop
  endfacet
  facet normal 0.000000e+00 1.000000e+00 0.000000e+00
    outer loop
      vertex 3.144782e+01 -2.038534e+01 2.288380e+01
      vertex 2.619786e+00 -2.038534e+01 1.176572e+01
      vertex 2.047970e+00 -2.038534e+01 1.251092e+01
    endloop
  endfacet
  facet normal 0.000000e+00 1.000000e+00 0.000000e+00
    outer loop
      vertex 3.144782e+01 -2.038534e+01 2.288380e+01
      vertex 2.047970e+00 -2.038534e+01 1.251092e+01
      vertex 1.302764e+00 -2.038534e+01 1.308274e+01
    endloop
  endfacet
  facet normal 0.000000e+00 1.000000e+00 0.000000e+00
    outer loop
      vertex 3.144782e+01 -2.038534e+01 2.288380e+01
      vertex 1.302764e+00 -2.038534e+01 1.308274e+01
      vertex 4.349510e-01 -2.038534e+01 1.344220e+01
    endloop
  endfacet
  facet normal 0.000000e+00 1.000000e+00 0.000000e+00
    outer loop
      vertex 3.144782e+01 -2.038534e+01 2.288380e+01
      vertex 4.349510e-01 -2.038534e+01 1.344220e+01
      vertex -4.963269e-01 -2.038534e+01 1.356481e+01
    endloop
  endfacet
  facet normal 0.000000e+00 1.000000e+00 0.000000e+00
    outer loop
      vertex 3.144782e+01 -2.038534e+01 2.288380e+01
      vertex -4.963269e-01 -2.038534e+01 1.356481e+01
      vertex -1.490623e+01 -2.039127e+01 1.368486e+01
    endloop
  endfacet
  facet normal 0.000000e+00 1.000000e+00 0.000000e+00
    outer loop
      vertex 3.144782e+01 -2.038534e+01 2.288380e+01
      vertex -1.490623e+01 -2.039127e+01 1.368486e+01
      vertex -3.142213e+01 -2.038534e+01 2.288380e+01
    endloop
  endfacet
  facet normal 0.000000e+00 0.000000e+00 1.000000e+00
    outer loop
      vertex -3.680894e+01 -2.294425e+01 2.288380e+01
      vertex -3.142213e+01 -2.038534e+01 2.288380e+01
      vertex -3.680894e+01 2.294425e+01 2.288380e+01
    endloop
  endfacet
  facet normal 0.000000e+00 0.000000e+00 1.000000e+00
    outer loop
      vertex -3.142213e+01 -2.038534e+01 2.288380e+01
      vertex -3.680894e+01 -2.294425e+01 2.288380e+01
      vertex 3.680894e+01 -2.294425e+01 2.288380e+01
    endloop
  endfacet
  facet normal 0.000000e+00 0.000000e+00 1.000000e+00
    outer loop
      vertex -3.142213e+01 -2.038534e+01 2.288380e+01
      vertex 3.680894e+01 -2.294425e+01 2.288380e+01
      vertex 3.144782e+01 -2.038534e+01 2.288380e+01
    endloop
  endfacet
  facet normal 0.000000e+00 0.000000e+00 1.000000e+00
    outer loop
      vertex 3.144782e+01 -2.038534e+01 2.288380e+01
      vertex 3.680894e+01 -2.294425e+01 2.288380e+01
      vertex 3.144782e+01 2.055141e+01 2.288380e+01
    endloop
  endfacet
  facet normal 0.000000e+00 0.000000e+00 1.000000e+00
    outer loop
      vertex -3.680894e+01 2.294425e+01 2.288380e+01
      vertex -3.142213e+01 2.055141e+01 2.288380e+01
      vertex 3.680894e+01 2.294425e+01 2.288380e+01
    endloop
  endfacet
  facet normal 0.000000e+00 0.000000e+00 1.000000e+00
    outer loop
      vertex -3.142213e+01 2.055141e+01 2.288380e+01
      vertex -3.680894e+01 2.294425e+01 2.288380e+01
      vertex -3.142213e+01 -2.038534e+01 2.288380e+01
    endloop
  endfacet
  facet normal 0.000000e+00 0.000000e+00 1.000000e+00
    outer loop
      vertex 3.680894e+01 2.294425e+01 2.288380e+01
      vertex -3.142213e+01 2.055141e+01 2.288380e+01
      vertex 3.144782e+01 2.055141e+01 2.288380e+01
    endloop
  endfacet
  facet normal 0.000000e+00 0.000000e+00 1.000000e+00
    outer loop
      vertex 3.680894e+01 2.294425e+01 2.288380e+01
      vertex 3.144782e+01 2.055141e+01 2.288380e+01
      vertex 3.680894e+01 -2.294425e+01 2.288380e+01
    endloop
  endfacet
  facet normal 0.000000e+00 1.000000e+00 0.000000e+00
    outer loop
      vertex -3.680894e+01 2.294425e+01 2.288380e+01
      vertex 3.680894e+01 2.294425e+01 0.000000e+00
      vertex -3.680894e+01 2.294425e+01 0.000000e+00
    endloop
  endfacet
  facet normal 0.000000e+00 1.000000e+00 0.000000e+00
    outer loop
      vertex 3.680894e+01 2.294425e+01 0.000000e+00
      vertex -3.680894e+01 2.294425e+01 2.288380e+01
      vertex 2.198790e+01 2.294425e+01 7.904232e+00
    endloop
  endfacet
  facet normal 0.000000e+00 1.000000e+00 0.000000e+00
    outer loop
      vertex 3.680894e+01 2.294425e+01 0.000000e+00
      vertex 2.198790e+01 2.294425e+01 7.904232e+00
      vertex 2.274075e+01 2.294425e+01 7.895401e+00
    endloop
  endfacet
  facet normal 0.000000e+00 1.000000e+00 0.000000e+00
    outer loop
      vertex 2.198790e+01 2.294425e+01 7.904232e+00
      vertex -3.680894e+01 2.294425e+01 2.288380e+01
      vertex 2.126300e+01 2.294425e+01 8.107613e+00
    endloop
  endfacet
  facet normal 0.000000e+00 1.000000e+00 0.000000e+00
    outer loop
      vertex 2.126300e+01 2.294425e+01 8.107613e+00
      vertex -3.680894e+01 2.294425e+01 2.288380e+01
      vertex 2.061544e+01 2.294425e+01 8.491683e+00
    endloop
  endfacet
  facet normal 0.000000e+00 1.000000e+00 0.000000e+00
    outer loop
      vertex 2.061544e+01 2.294425e+01 8.491683e+00
      vertex -3.680894e+01 2.294425e+01 2.288380e+01
      vertex 2.008935e+01 2.294425e+01 9.030267e+00
    endloop
  endfacet
  facet normal 0.000000e+00 1.000000e+00 0.000000e+00
    outer loop
      vertex 2.008935e+01 2.294425e+01 9.030267e+00
      vertex -3.680894e+01 2.294425e+01 2.288380e+01
      vertex 1.972057e+01 2.294425e+01 9.686663e+00
    endloop
  endfacet
  facet normal 0.000000e+00 1.000000e+00 0.000000e+00
    outer loop
      vertex 1.972057e+01 2.294425e+01 9.686663e+00
      vertex -3.680894e+01 2.294425e+01 2.288380e+01
      vertex 1.953426e+01 2.294425e+01 1.041614e+01
    endloop
  endfacet
  facet normal 0.000000e+00 1.000000e+00 0.000000e+00
    outer loop
      vertex 1.953426e+01 2.294425e+01 1.041614e+01
      vertex -3.680894e+01 2.294425e+01 2.288380e+01
      vertex 1.954309e+01 2.294425e+01 1.116898e+01
    endloop
  endfacet
  facet normal 0.000000e+00 1.000000e+00 0.000000e+00
    outer loop
      vertex 1.954309e+01 2.294425e+01 1.116898e+01
      vertex -3.680894e+01 2.294425e+01 2.288380e+01
      vertex 1.974647e+01 2.294425e+01 1.189388e+01
    endloop
  endfacet
  facet normal 0.000000e+00 1.000000e+00 0.000000e+00
    outer loop
      vertex 1.974647e+01 2.294425e+01 1.189388e+01
      vertex -3.680894e+01 2.294425e+01 2.288380e+01
      vertex 2.013054e+01 2.294425e+01 1.254144e+01
    endloop
  endfacet
  facet normal 0.000000e+00 1.000000e+00 0.000000e+00
    outer loop
      vertex 2.013054e+01 2.294425e+01 1.254144e+01
      vertex -3.680894e+01 2.294425e+01 2.288380e+01
      vertex 2.066912e+01 2.294425e+01 1.306754e+01
    endloop
  endfacet
  facet normal 0.000000e+00 1.000000e+00 0.000000e+00
    outer loop
      vertex 2.066912e+01 2.294425e+01 1.306754e+01
      vertex -3.680894e+01 2.294425e+01 2.288380e+01
      vertex 2.132551e+01 2.294425e+01 1.343631e+01
    endloop
  endfacet
  facet normal 0.000000e+00 1.000000e+00 0.000000e+00
    outer loop
      vertex 2.132551e+01 2.294425e+01 1.343631e+01
      vertex -3.680894e+01 2.294425e+01 2.288380e+01
      vertex 2.205499e+01 2.294425e+01 1.362263e+01
    endloop
  endfacet
  facet normal 0.000000e+00 1.000000e+00 0.000000e+00
    outer loop
      vertex 3.680894e+01 2.294425e+01 0.000000e+00
      vertex 2.466521e+01 2.294425e+01 8.976585e+00
      vertex 3.680894e+01 2.294425e+01 2.288380e+01
    endloop
  endfacet
  facet normal 0.000000e+00 1.000000e+00 0.000000e+00
    outer loop
      vertex 2.466521e+01 2.294425e+01 8.976585e+00
      vertex 3.680894e+01 2.294425e+01 0.000000e+00
      vertex 2.412661e+01 2.294425e+01 8.450490e+00
    endloop
  endfacet
  facet normal 0.000000e+00 1.000000e+00 0.000000e+00
    outer loop
      vertex 2.412661e+01 2.294425e+01 8.450490e+00
      vertex 3.680894e+01 2.294425e+01 0.000000e+00
      vertex 2.347022e+01 2.294425e+01 8.081719e+00
    endloop
  endfacet
  facet normal 0.000000e+00 1.000000e+00 0.000000e+00
    outer loop
      vertex 2.347022e+01 2.294425e+01 8.081719e+00
      vertex 3.680894e+01 2.294425e+01 0.000000e+00
      vertex 2.274075e+01 2.294425e+01 7.895401e+00
    endloop
  endfacet
  facet normal 0.000000e+00 1.000000e+00 0.000000e+00
    outer loop
      vertex 3.680894e+01 2.294425e+01 2.288380e+01
      vertex 2.466521e+01 2.294425e+01 8.976585e+00
      vertex 2.504927e+01 2.294425e+01 9.624148e+00
    endloop
  endfacet
  facet normal 0.000000e+00 1.000000e+00 0.000000e+00
    outer loop
      vertex 3.680894e+01 2.294425e+01 2.288380e+01
      vertex 2.504927e+01 2.294425e+01 9.624148e+00
      vertex 2.525265e+01 2.294425e+01 1.034905e+01
    endloop
  endfacet
  facet normal 0.000000e+00 1.000000e+00 0.000000e+00
    outer loop
      vertex 3.680894e+01 2.294425e+01 2.288380e+01
      vertex 2.525265e+01 2.294425e+01 1.034905e+01
      vertex 2.526149e+01 2.294425e+01 1.110189e+01
    endloop
  endfacet
  facet normal 0.000000e+00 1.000000e+00 0.000000e+00
    outer loop
      vertex 3.680894e+01 2.294425e+01 2.288380e+01
      vertex 2.526149e+01 2.294425e+01 1.110189e+01
      vertex 2.507516e+01 2.294425e+01 1.183137e+01
    endloop
  endfacet
  facet normal 0.000000e+00 1.000000e+00 0.000000e+00
    outer loop
      vertex 3.680894e+01 2.294425e+01 2.288380e+01
      vertex 2.507516e+01 2.294425e+01 1.183137e+01
      vertex 2.470640e+01 2.294425e+01 1.248776e+01
    endloop
  endfacet
  facet normal 0.000000e+00 1.000000e+00 0.000000e+00
    outer loop
      vertex 3.680894e+01 2.294425e+01 2.288380e+01
      vertex 2.470640e+01 2.294425e+01 1.248776e+01
      vertex 2.418030e+01 2.294425e+01 1.302635e+01
    endloop
  endfacet
  facet normal 0.000000e+00 1.000000e+00 0.000000e+00
    outer loop
      vertex 3.680894e+01 2.294425e+01 2.288380e+01
      vertex 2.418030e+01 2.294425e+01 1.302635e+01
      vertex 2.353273e+01 2.294425e+01 1.341042e+01
    endloop
  endfacet
  facet normal 0.000000e+00 1.000000e+00 0.000000e+00
    outer loop
      vertex 3.680894e+01 2.294425e+01 2.288380e+01
      vertex 2.353273e+01 2.294425e+01 1.341042e+01
      vertex 2.280783e+01 2.294425e+01 1.361380e+01
    endloop
  endfacet
  facet normal 0.000000e+00 1.000000e+00 0.000000e+00
    outer loop
      vertex 3.680894e+01 2.294425e+01 2.288380e+01
      vertex 2.280783e+01 2.294425e+01 1.361380e+01
      vertex 2.205499e+01 2.294425e+01 1.362263e+01
    endloop
  endfacet
  facet normal 0.000000e+00 1.000000e+00 0.000000e+00
    outer loop
      vertex 3.680894e+01 2.294425e+01 2.288380e+01
      vertex 2.205499e+01 2.294425e+01 1.362263e+01
      vertex -3.680894e+01 2.294425e+01 2.288380e+01
    endloop
  endfacet
  facet normal 0.000000e+00 0.000000e+00 -1.000000e+00
    outer loop
      vertex 3.680894e+01 2.294425e+01 0.000000e+00
      vertex -3.680894e+01 -2.294425e+01 0.000000e+00
      vertex -3.680894e+01 2.294425e+01 0.000000e+00
    endloop
  endfacet
  facet normal 0.000000e+00 0.000000e+00 -1.000000e+00
    outer loop
      vertex -3.680894e+01 -2.294425e+01 0.000000e+00
      vertex 3.680894e+01 2.294425e+01 0.000000e+00
      vertex 3.680894e+01 -2.294425e+01 0.000000e+00
    endloop
  endfacet
  facet normal 1.000000e+00 0.000000e+00 0.000000e+00
    outer loop
      vertex 3.680894e+01 2.294425e+01 0.000000e+00
      vertex 3.680894e+01 -2.294425e+01 2.288380e+01
      vertex 3.680894e+01 -2.294425e+01 0.000000e+00
    endloop
  endfacet
  facet normal 1.000000e+00 0.000000e+00 0.000000e+00
    outer loop
      vertex 3.680894e+01 -2.294425e+01 2.288380e+01
      vertex 3.680894e+01 2.294425e+01 0.000000e+00
      vertex 3.680894e+01 2.294425e+01 2.288380e+01
    endloop
  endfacet
  facet normal 0.000000e+00 -1.000000e+00 0.000000e+00
    outer loop
      vertex 3.144782e+01 2.055141e+01 3.086913e+00
      vertex 2.274075e+01 2.055141e+01 7.895401e+00
      vertex -3.142213e+01 2.055141e+01 3.086913e+00
    endloop
  endfacet
  facet normal 0.000000e+00 -1.000000e+00 0.000000e+00
    outer loop
      vertex 2.274075e+01 2.055141e+01 7.895401e+00
      vertex 3.144782e+01 2.055141e+01 3.086913e+00
      vertex 2.347022e+01 2.055141e+01 8.081719e+00
    endloop
  endfacet
  facet normal 0.000000e+00 -1.000000e+00 0.000000e+00
    outer loop
      vertex 2.347022e+01 2.055141e+01 8.081719e+00
      vertex 3.144782e+01 2.055141e+01 3.086913e+00
      vertex 2.412661e+01 2.055141e+01 8.450490e+00
    endloop
  endfacet
  facet normal 0.000000e+00 -1.000000e+00 0.000000e+00
    outer loop
      vertex 2.412661e+01 2.055141e+01 8.450490e+00
      vertex 3.144782e+01 2.055141e+01 3.086913e+00
      vertex 2.466521e+01 2.055141e+01 8.976585e+00
    endloop
  endfacet
  facet normal 0.000000e+00 -1.000000e+00 0.000000e+00
    outer loop
      vertex 2.466521e+01 2.055141e+01 8.976585e+00
      vertex 3.144782e+01 2.055141e+01 3.086913e+00
      vertex 2.504927e+01 2.055141e+01 9.624148e+00
    endloop
  endfacet
  facet normal 0.000000e+00 -1.000000e+00 0.000000e+00
    outer loop
      vertex 2.504927e+01 2.055141e+01 9.624148e+00
      vertex 3.144782e+01 2.055141e+01 3.086913e+00
      vertex 3.144782e+01 2.055141e+01 2.288380e+01
    endloop
  endfacet
  facet normal 0.000000e+00 -1.000000e+00 0.000000e+00
    outer loop
      vertex 2.504927e+01 2.055141e+01 9.624148e+00
      vertex 3.144782e+01 2.055141e+01 2.288380e+01
      vertex 2.525265e+01 2.055141e+01 1.034905e+01
    endloop
  endfacet
  facet normal 0.000000e+00 -1.000000e+00 0.000000e+00
    outer loop
      vertex 2.525265e+01 2.055141e+01 1.034905e+01
      vertex 3.144782e+01 2.055141e+01 2.288380e+01
      vertex 2.526149e+01 2.055141e+01 1.110189e+01
    endloop
  endfacet
  facet normal 0.000000e+00 -1.000000e+00 0.000000e+00
    outer loop
      vertex 2.526149e+01 2.055141e+01 1.110189e+01
      vertex 3.144782e+01 2.055141e+01 2.288380e+01
      vertex 2.507516e+01 2.055141e+01 1.183137e+01
    endloop
  endfacet
  facet normal 0.000000e+00 -1.000000e+00 0.000000e+00
    outer loop
      vertex 2.507516e+01 2.055141e+01 1.183137e+01
      vertex 3.144782e+01 2.055141e+01 2.288380e+01
      vertex 2.470640e+01 2.055141e+01 1.248776e+01
    endloop
  endfacet
  facet normal 0.000000e+00 -1.000000e+00 0.000000e+00
    outer loop
      vertex 2.470640e+01 2.055141e+01 1.248776e+01
      vertex 3.144782e+01 2.055141e+01 2.288380e+01
      vertex 2.418030e+01 2.055141e+01 1.302635e+01
    endloop
  endfacet
  facet normal 0.000000e+00 -1.000000e+00 0.000000e+00
    outer loop
      vertex 2.418030e+01 2.055141e+01 1.302635e+01
      vertex 3.144782e+01 2.055141e+01 2.288380e+01
      vertex 2.353273e+01 2.055141e+01 1.341042e+01
    endloop
  endfacet
  facet normal 0.000000e+00 -1.000000e+00 0.000000e+00
    outer loop
      vertex 2.353273e+01 2.055141e+01 1.341042e+01
      vertex 3.144782e+01 2.055141e+01 2.288380e+01
      vertex 2.280783e+01 2.055141e+01 1.361380e+01
    endloop
  endfacet
  facet normal 0.000000e+00 -1.000000e+00 0.000000e+00
    outer loop
      vertex 2.280783e+01 2.055141e+01 1.361380e+01
      vertex 3.144782e+01 2.055141e+01 2.288380e+01
      vertex 2.205499e+01 2.055141e+01 1.362263e+01
    endloop
  endfacet
  facet normal 0.000000e+00 -1.000000e+00 0.000000e+00
    outer loop
      vertex -3.142213e+01 2.055141e+01 3.086913e+00
      vertex 2.198790e+01 2.055141e+01 7.904232e+00
      vertex -3.142213e+01 2.055141e+01 2.288380e+01
    endloop
  endfacet
  facet normal 0.000000e+00 -1.000000e+00 0.000000e+00
    outer loop
      vertex 2.198790e+01 2.055141e+01 7.904232e+00
      vertex -3.142213e+01 2.055141e+01 3.086913e+00
      vertex 2.274075e+01 2.055141e+01 7.895401e+00
    endloop
  endfacet
  facet normal 0.000000e+00 -1.000000e+00 0.000000e+00
    outer loop
      vertex -3.142213e+01 2.055141e+01 2.288380e+01
      vertex 2.198790e+01 2.055141e+01 7.904232e+00
      vertex 2.126300e+01 2.055141e+01 8.107613e+00
    endloop
  endfacet
  facet normal 0.000000e+00 -1.000000e+00 0.000000e+00
    outer loop
      vertex -3.142213e+01 2.055141e+01 2.288380e+01
      vertex 2.126300e+01 2.055141e+01 8.107613e+00
      vertex 2.061544e+01 2.055141e+01 8.491683e+00
    endloop
  endfacet
  facet normal 0.000000e+00 -1.000000e+00 0.000000e+00
    outer loop
      vertex -3.142213e+01 2.055141e+01 2.288380e+01
      vertex 2.061544e+01 2.055141e+01 8.491683e+00
      vertex 2.008935e+01 2.055141e+01 9.030267e+00
    endloop
  endfacet
  facet normal 0.000000e+00 -1.000000e+00 0.000000e+00
    outer loop
      vertex -3.142213e+01 2.055141e+01 2.288380e+01
      vertex 2.008935e+01 2.055141e+01 9.030267e+00
      vertex 1.972057e+01 2.055141e+01 9.686663e+00
    endloop
  endfacet
  facet normal 0.000000e+00 -1.000000e+00 0.000000e+00
    outer loop
      vertex -3.142213e+01 2.055141e+01 2.288380e+01
      vertex 1.972057e+01 2.055141e+01 9.686663e+00
      vertex 1.953426e+01 2.055141e+01 1.041614e+01
    endloop
  endfacet
  facet normal 0.000000e+00 -1.000000e+00 0.000000e+00
    outer loop
      vertex -3.142213e+01 2.055141e+01 2.288380e+01
      vertex 1.953426e+01 2.055141e+01 1.041614e+01
      vertex 1.954309e+01 2.055141e+01 1.116898e+01
    endloop
  endfacet
  facet normal 0.000000e+00 -1.000000e+00 0.000000e+00
    outer loop
      vertex -3.142213e+01 2.055141e+01 2.288380e+01
      vertex 1.954309e+01 2.055141e+01 1.116898e+01
      vertex 1.974647e+01 2.055141e+01 1.189388e+01
    endloop
  endfacet
  facet normal 0.000000e+00 -1.000000e+00 0.000000e+00
    outer loop
      vertex -3.142213e+01 2.055141e+01 2.288380e+01
      vertex 1.974647e+01 2.055141e+01 1.189388e+01
      vertex 2.013054e+01 2.055141e+01 1.254144e+01
    endloop
  endfacet
  facet normal 0.000000e+00 -1.000000e+00 0.000000e+00
    outer loop
      vertex -3.142213e+01 2.055141e+01 2.288380e+01
      vertex 2.013054e+01 2.055141e+01 1.254144e+01
      vertex 2.066912e+01 2.055141e+01 1.306754e+01
    endloop
  endfacet
  facet normal 0.000000e+00 -1.000000e+00 0.000000e+00
    outer loop
      vertex -3.142213e+01 2.055141e+01 2.288380e+01
      vertex 2.066912e+01 2.055141e+01 1.306754e+01
      vertex 2.132551e+01 2.055141e+01 1.343631e+01
    endloop
  endfacet
  facet normal 0.000000e+00 -1.000000e+00 0.000000e+00
    outer loop
      vertex -3.142213e+01 2.055141e+01 2.288380e+01
      vertex 2.132551e+01 2.055141e+01 1.343631e+01
      vertex 2.205499e+01 2.055141e+01 1.362263e+01
    endloop
  endfacet
  facet normal 0.000000e+00 -1.000000e+00 0.000000e+00
    outer loop
      vertex -3.142213e+01 2.055141e+01 2.288380e+01
      vertex 2.205499e+01 2.055141e+01 1.362263e+01
      vertex 3.144782e+01 2.055141e+01 2.288380e+01
    endloop
  endfacet
  facet normal -1.000000e+00 0.000000e+00 0.000000e+00
    outer loop
      vertex 3.144782e+01 2.055141e+01 2.288380e+01
      vertex 3.144782e+01 -2.038534e+01 3.086913e+00
      vertex 3.144782e+01 -2.038534e+01 2.288380e+01
    endloop
  endfacet
  facet normal -1.000000e+00 0.000000e+00 0.000000e+00
    outer loop
      vertex 3.144782e+01 -2.038534e+01 3.086913e+00
      vertex 3.144782e+01 2.055141e+01 2.288380e+01
      vertex 3.144782e+01 2.055141e+01 3.086913e+00
    endloop
  endfacet
  facet normal 0.000000e+00 -1.000000e+00 0.000000e+00
    outer loop
      vertex 3.680894e+01 -2.294425e+01 0.000000e+00
      vertex 4.349510e-01 -2.294425e+01 6.491048e+00
      vertex -3.680894e+01 -2.294425e+01 0.000000e+00
    endloop
  endfacet
  facet normal 0.000000e+00 -1.000000e+00 0.000000e+00
    outer loop
      vertex 4.349510e-01 -2.294425e+01 6.491048e+00
      vertex 3.680894e+01 -2.294425e+01 0.000000e+00
      vertex 1.302764e+00 -2.294425e+01 6.850508e+00
    endloop
  endfacet
  facet normal 0.000000e+00 -1.000000e+00 0.000000e+00
    outer loop
      vertex 1.302764e+00 -2.294425e+01 6.850508e+00
      vertex 3.680894e+01 -2.294425e+01 0.000000e+00
      vertex 3.680894e+01 -2.294425e+01 2.288380e+01
    endloop
  endfacet
  facet normal 0.000000e+00 -1.000000e+00 0.000000e+00
    outer loop
      vertex -3.680894e+01 -2.294425e+01 0.000000e+00
      vertex 4.349510e-01 -2.294425e+01 6.491048e+00
      vertex -4.963269e-01 -2.294425e+01 6.368443e+00
    endloop
  endfacet
  facet normal 0.000000e+00 -1.000000e+00 0.000000e+00
    outer loop
      vertex -3.680894e+01 -2.294425e+01 0.000000e+00
      vertex -4.963269e-01 -2.294425e+01 6.368443e+00
      vertex -1.530842e+01 -2.294425e+01 6.248394e+00
    endloop
  endfacet
  facet normal 0.000000e+00 -1.000000e+00 0.000000e+00
    outer loop
      vertex -1.530842e+01 -2.294425e+01 6.248394e+00
      vertex -4.963269e-01 -2.294425e+01 6.368443e+00
      vertex -1.433922e+01 -2.294425e+01 6.323042e+00
    endloop
  endfacet
  facet normal 0.000000e+00 -1.000000e+00 0.000000e+00
    outer loop
      vertex 1.302764e+00 -2.294425e+01 6.850508e+00
      vertex 3.680894e+01 -2.294425e+01 2.288380e+01
      vertex 2.047970e+00 -2.294425e+01 7.422326e+00
    endloop
  endfacet
  facet normal 0.000000e+00 -1.000000e+00 0.000000e+00
    outer loop
      vertex 2.047970e+00 -2.294425e+01 7.422326e+00
      vertex 3.680894e+01 -2.294425e+01 2.288380e+01
      vertex 2.619786e+00 -2.294425e+01 8.167534e+00
    endloop
  endfacet
  facet normal 0.000000e+00 -1.000000e+00 0.000000e+00
    outer loop
      vertex 2.619786e+00 -2.294425e+01 8.167534e+00
      vertex 3.680894e+01 -2.294425e+01 2.288380e+01
      vertex 2.979248e+00 -2.294425e+01 9.035347e+00
    endloop
  endfacet
  facet normal 0.000000e+00 -1.000000e+00 0.000000e+00
    outer loop
      vertex 2.979248e+00 -2.294425e+01 9.035347e+00
      vertex 3.680894e+01 -2.294425e+01 2.288380e+01
      vertex 3.101855e+00 -2.294425e+01 9.966625e+00
    endloop
  endfacet
  facet normal 0.000000e+00 -1.000000e+00 0.000000e+00
    outer loop
      vertex 3.101855e+00 -2.294425e+01 9.966625e+00
      vertex 3.680894e+01 -2.294425e+01 2.288380e+01
      vertex 2.979248e+00 -2.294425e+01 1.089790e+01
    endloop
  endfacet
  facet normal 0.000000e+00 -1.000000e+00 0.000000e+00
    outer loop
      vertex 2.979248e+00 -2.294425e+01 1.089790e+01
      vertex 3.680894e+01 -2.294425e+01 2.288380e+01
      vertex 2.619786e+00 -2.294425e+01 1.176572e+01
    endloop
  endfacet
  facet normal 0.000000e+00 -1.000000e+00 0.000000e+00
    outer loop
      vertex 2.619786e+00 -2.294425e+01 1.176572e+01
      vertex 3.680894e+01 -2.294425e+01 2.288380e+01
      vertex 2.047970e+00 -2.294425e+01 1.251092e+01
    endloop
  endfacet
  facet normal 0.000000e+00 -1.000000e+00 0.000000e+00
    outer loop
      vertex 2.047970e+00 -2.294425e+01 1.251092e+01
      vertex 3.680894e+01 -2.294425e+01 2.288380e+01
      vertex 1.302764e+00 -2.294425e+01 1.308274e+01
    endloop
  endfacet
  facet normal 0.000000e+00 -1.000000e+00 0.000000e+00
    outer loop
      vertex 1.302764e+00 -2.294425e+01 1.308274e+01
      vertex 3.680894e+01 -2.294425e+01 2.288380e+01
      vertex 4.349510e-01 -2.294425e+01 1.344220e+01
    endloop
  endfacet
  facet normal 0.000000e+00 -1.000000e+00 0.000000e+00
    outer loop
      vertex 4.349510e-01 -2.294425e+01 1.344220e+01
      vertex 3.680894e+01 -2.294425e+01 2.288380e+01
      vertex -4.963269e-01 -2.294425e+01 1.356481e+01
    endloop
  endfacet
  facet normal 0.000000e+00 -1.000000e+00 0.000000e+00
    outer loop
      vertex -4.963269e-01 -2.294425e+01 1.356481e+01
      vertex 3.680894e+01 -2.294425e+01 2.288380e+01
      vertex -1.490623e+01 -2.294425e+01 1.368486e+01
    endloop
  endfacet
  facet normal 0.000000e+00 -1.000000e+00 0.000000e+00
    outer loop
      vertex -3.680894e+01 -2.294425e+01 0.000000e+00
      vertex -1.714059e+01 -2.294425e+01 6.847091e+00
      vertex -3.680894e+01 -2.294425e+01 2.288380e+01
    endloop
  endfacet
  facet normal 0.000000e+00 -1.000000e+00 0.000000e+00
    outer loop
      vertex -1.714059e+01 -2.294425e+01 6.847091e+00
      vertex -3.680894e+01 -2.294425e+01 0.000000e+00
      vertex -1.626391e+01 -2.294425e+01 6.427137e+00
    endloop
  endfacet
  facet normal 0.000000e+00 -1.000000e+00 0.000000e+00
    outer loop
      vertex -1.626391e+01 -2.294425e+01 6.427137e+00
      vertex -3.680894e+01 -2.294425e+01 0.000000e+00
      vertex -1.530842e+01 -2.294425e+01 6.248394e+00
    endloop
  endfacet
  facet normal 0.000000e+00 -1.000000e+00 0.000000e+00
    outer loop
      vertex -3.680894e+01 -2.294425e+01 2.288380e+01
      vertex -1.714059e+01 -2.294425e+01 6.847091e+00
      vertex -1.787871e+01 -2.294425e+01 7.479635e+00
    endloop
  endfacet
  facet normal 0.000000e+00 -1.000000e+00 0.000000e+00
    outer loop
      vertex -3.680894e+01 -2.294425e+01 2.288380e+01
      vertex -1.787871e+01 -2.294425e+01 7.479635e+00
      vertex -1.842795e+01 -2.294425e+01 8.281664e+00
    endloop
  endfacet
  facet normal 0.000000e+00 -1.000000e+00 0.000000e+00
    outer loop
      vertex -3.680894e+01 -2.294425e+01 2.288380e+01
      vertex -1.842795e+01 -2.294425e+01 8.281664e+00
      vertex -1.875091e+01 -2.294425e+01 9.198520e+00
    endloop
  endfacet
  facet normal 0.000000e+00 -1.000000e+00 0.000000e+00
    outer loop
      vertex -3.680894e+01 -2.294425e+01 2.288380e+01
      vertex -1.875091e+01 -2.294425e+01 9.198520e+00
      vertex -1.882555e+01 -2.294425e+01 1.016772e+01
    endloop
  endfacet
  facet normal 0.000000e+00 -1.000000e+00 0.000000e+00
    outer loop
      vertex -3.680894e+01 -2.294425e+01 2.288380e+01
      vertex -1.882555e+01 -2.294425e+01 1.016772e+01
      vertex -1.864681e+01 -2.294425e+01 1.112322e+01
    endloop
  endfacet
  facet normal 0.000000e+00 -1.000000e+00 0.000000e+00
    outer loop
      vertex -3.680894e+01 -2.294425e+01 2.288380e+01
      vertex -1.864681e+01 -2.294425e+01 1.112322e+01
      vertex -1.822686e+01 -2.294425e+01 1.199990e+01
    endloop
  endfacet
  facet normal 0.000000e+00 -1.000000e+00 0.000000e+00
    outer loop
      vertex -3.680894e+01 -2.294425e+01 2.288380e+01
      vertex -1.822686e+01 -2.294425e+01 1.199990e+01
      vertex -1.759431e+01 -2.294425e+01 1.273801e+01
    endloop
  endfacet
  facet normal 0.000000e+00 -1.000000e+00 0.000000e+00
    outer loop
      vertex -3.680894e+01 -2.294425e+01 2.288380e+01
      vertex -1.759431e+01 -2.294425e+01 1.273801e+01
      vertex -1.679228e+01 -2.294425e+01 1.328726e+01
    endloop
  endfacet
  facet normal 0.000000e+00 -1.000000e+00 0.000000e+00
    outer loop
      vertex -3.680894e+01 -2.294425e+01 2.288380e+01
      vertex -1.679228e+01 -2.294425e+01 1.328726e+01
      vertex -1.587543e+01 -2.294425e+01 1.361021e+01
    endloop
  endfacet
  facet normal 0.000000e+00 -1.000000e+00 0.000000e+00
    outer loop
      vertex -3.680894e+01 -2.294425e+01 2.288380e+01
      vertex -1.587543e+01 -2.294425e+01 1.361021e+01
      vertex -1.490623e+01 -2.294425e+01 1.368486e+01
    endloop
  endfacet
  facet normal 0.000000e+00 -1.000000e+00 0.000000e+00
    outer loop
      vertex -3.680894e+01 -2.294425e+01 2.288380e+01
      vertex -1.490623e+01 -2.294425e+01 1.368486e+01
      vertex 3.680894e+01 -2.294425e+01 2.288380e+01
    endloop
  endfacet
  facet normal 0.000000e+00 -1.000000e+00 0.000000e+00
    outer loop
      vertex -4.963269e-01 -2.294425e+01 6.368443e+00
      vertex -1.342235e+01 -2.294425e+01 6.645994e+00
      vertex -1.433922e+01 -2.294425e+01 6.323042e+00
    endloop
  endfacet
  facet normal 0.000000e+00 -1.000000e+00 0.000000e+00
    outer loop
      vertex -1.342235e+01 -2.294425e+01 6.645994e+00
      vertex -4.963269e-01 -2.294425e+01 6.368443e+00
      vertex -1.427605e+00 -2.294425e+01 6.491048e+00
    endloop
  endfacet
  facet normal 0.000000e+00 -1.000000e+00 0.000000e+00
    outer loop
      vertex -1.342235e+01 -2.294425e+01 6.645994e+00
      vertex -1.427605e+00 -2.294425e+01 6.491048e+00
      vertex -2.295418e+00 -2.294425e+01 6.850508e+00
    endloop
  endfacet
  facet normal 0.000000e+00 -1.000000e+00 0.000000e+00
    outer loop
      vertex -1.342235e+01 -2.294425e+01 6.645994e+00
      vertex -2.295418e+00 -2.294425e+01 6.850508e+00
      vertex -1.262033e+01 -2.294425e+01 7.195242e+00
    endloop
  endfacet
  facet normal 0.000000e+00 -1.000000e+00 0.000000e+00
    outer loop
      vertex -1.262033e+01 -2.294425e+01 7.195242e+00
      vertex -2.295418e+00 -2.294425e+01 6.850508e+00
      vertex -3.040624e+00 -2.294425e+01 7.422326e+00
    endloop
  endfacet
  facet normal 0.000000e+00 -1.000000e+00 0.000000e+00
    outer loop
      vertex -1.262033e+01 -2.294425e+01 7.195242e+00
      vertex -3.040624e+00 -2.294425e+01 7.422326e+00
      vertex -1.198779e+01 -2.294425e+01 7.933355e+00
    endloop
  endfacet
  facet normal 0.000000e+00 -1.000000e+00 0.000000e+00
    outer loop
      vertex -1.198779e+01 -2.294425e+01 7.933355e+00
      vertex -3.040624e+00 -2.294425e+01 7.422326e+00
      vertex -3.612440e+00 -2.294425e+01 8.167534e+00
    endloop
  endfacet
  facet normal 0.000000e+00 -1.000000e+00 0.000000e+00
    outer loop
      vertex -1.198779e+01 -2.294425e+01 7.933355e+00
      vertex -3.612440e+00 -2.294425e+01 8.167534e+00
      vertex -1.156783e+01 -2.294425e+01 8.810032e+00
    endloop
  endfacet
  facet normal 0.000000e+00 -1.000000e+00 0.000000e+00
    outer loop
      vertex -1.156783e+01 -2.294425e+01 8.810032e+00
      vertex -3.612440e+00 -2.294425e+01 8.167534e+00
      vertex -3.971902e+00 -2.294425e+01 9.035347e+00
    endloop
  endfacet
  facet normal 0.000000e+00 -1.000000e+00 0.000000e+00
    outer loop
      vertex -1.156783e+01 -2.294425e+01 8.810032e+00
      vertex -3.971902e+00 -2.294425e+01 9.035347e+00
      vertex -1.138908e+01 -2.294425e+01 9.765529e+00
    endloop
  endfacet
  facet normal 0.000000e+00 -1.000000e+00 0.000000e+00
    outer loop
      vertex -1.138908e+01 -2.294425e+01 9.765529e+00
      vertex -3.971902e+00 -2.294425e+01 9.035347e+00
      vertex -4.094508e+00 -2.294425e+01 9.966625e+00
    endloop
  endfacet
  facet normal 0.000000e+00 -1.000000e+00 0.000000e+00
    outer loop
      vertex -1.138908e+01 -2.294425e+01 9.765529e+00
      vertex -4.094508e+00 -2.294425e+01 9.966625e+00
      vertex -1.146374e+01 -2.294425e+01 1.073473e+01
    endloop
  endfacet
  facet normal 0.000000e+00 -1.000000e+00 0.000000e+00
    outer loop
      vertex -1.146374e+01 -2.294425e+01 1.073473e+01
      vertex -4.094508e+00 -2.294425e+01 9.966625e+00
      vertex -3.971902e+00 -2.294425e+01 1.089790e+01
    endloop
  endfacet
  facet normal 0.000000e+00 -1.000000e+00 0.000000e+00
    outer loop
      vertex -1.146374e+01 -2.294425e+01 1.073473e+01
      vertex -3.971902e+00 -2.294425e+01 1.089790e+01
      vertex -1.178669e+01 -2.294425e+01 1.165159e+01
    endloop
  endfacet
  facet normal 0.000000e+00 -1.000000e+00 0.000000e+00
    outer loop
      vertex -1.178669e+01 -2.294425e+01 1.165159e+01
      vertex -3.971902e+00 -2.294425e+01 1.089790e+01
      vertex -3.612440e+00 -2.294425e+01 1.176572e+01
    endloop
  endfacet
  facet normal 0.000000e+00 -1.000000e+00 0.000000e+00
    outer loop
      vertex -1.178669e+01 -2.294425e+01 1.165159e+01
      vertex -3.612440e+00 -2.294425e+01 1.176572e+01
      vertex -1.233594e+01 -2.294425e+01 1.245361e+01
    endloop
  endfacet
  facet normal 0.000000e+00 -1.000000e+00 0.000000e+00
    outer loop
      vertex -1.233594e+01 -2.294425e+01 1.245361e+01
      vertex -3.612440e+00 -2.294425e+01 1.176572e+01
      vertex -3.040624e+00 -2.294425e+01 1.251092e+01
    endloop
  endfacet
  facet normal 0.000000e+00 -1.000000e+00 0.000000e+00
    outer loop
      vertex -1.233594e+01 -2.294425e+01 1.245361e+01
      vertex -3.040624e+00 -2.294425e+01 1.251092e+01
      vertex -1.307405e+01 -2.294425e+01 1.308616e+01
    endloop
  endfacet
  facet normal 0.000000e+00 -1.000000e+00 0.000000e+00
    outer loop
      vertex -1.307405e+01 -2.294425e+01 1.308616e+01
      vertex -3.040624e+00 -2.294425e+01 1.251092e+01
      vertex -2.295418e+00 -2.294425e+01 1.308274e+01
    endloop
  endfacet
  facet normal 0.000000e+00 -1.000000e+00 0.000000e+00
    outer loop
      vertex -1.307405e+01 -2.294425e+01 1.308616e+01
      vertex -2.295418e+00 -2.294425e+01 1.308274e+01
      vertex -1.427605e+00 -2.294425e+01 1.344220e+01
    endloop
  endfacet
  facet normal 0.000000e+00 -1.000000e+00 0.000000e+00
    outer loop
      vertex -1.307405e+01 -2.294425e+01 1.308616e+01
      vertex -1.427605e+00 -2.294425e+01 1.344220e+01
      vertex -1.395073e+01 -2.294425e+01 1.350611e+01
    endloop
  endfacet
  facet normal 0.000000e+00 -1.000000e+00 0.000000e+00
    outer loop
      vertex -1.395073e+01 -2.294425e+01 1.350611e+01
      vertex -1.427605e+00 -2.294425e+01 1.344220e+01
      vertex -4.963269e-01 -2.294425e+01 1.356481e+01
    endloop
  endfacet
  facet normal 0.000000e+00 -1.000000e+00 0.000000e+00
    outer loop
      vertex -1.395073e+01 -2.294425e+01 1.350611e+01
      vertex -4.963269e-01 -2.294425e+01 1.356481e+01
      vertex -1.490623e+01 -2.294425e+01 1.368486e+01
    endloop
  endfacet
  facet normal 0.000000e+00 0.000000e+00 1.000000e+00
    outer loop
      vertex 3.144782e+01 -2.038534e+01 3.086913e+00
      vertex -3.142213e+01 2.055141e+01 3.086913e+00
      vertex -3.142213e+01 -2.038534e+01 3.086913e+00
    endloop
  endfacet
  facet normal 0.000000e+00 0.000000e+00 1.000000e+00
    outer loop
      vertex -3.142213e+01 2.055141e+01 3.086913e+00
      vertex 3.144782e+01 -2.038534e+01 3.086913e+00
      vertex 3.144782e+01 2.055141e+01 3.086913e+00
    endloop
  endfacet
  facet normal 7.643224e-17 -1.000000e+00 -1.490180e-08
    outer loop
      vertex -3.142213e+01 -5.068592e+00 1.188048e+01
      vertex -3.680894e+01 -5.068592e+00 6.821576e+00
      vertex -3.142213e+01 -5.068592e+00 6.821576e+00
    endloop
  endfacet
  facet normal 7.643224e-17 -1.000000e+00 -1.490180e-08
    outer loop
      vertex -3.680894e+01 -5.068592e+00 6.821576e+00
      vertex -3.142213e+01 -5.068592e+00 1.188048e+01
      vertex -3.626834e+01 -5.068592e+00 1.188048e+01
    endloop
  endfacet
  facet normal 7.643224e-17 -1.000000e+00 -1.490180e-08
    outer loop
      vertex -3.680894e+01 -5.068592e+00 1.188048e+01
      vertex -3.680894e+01 -5.068592e+00 6.821576e+00
      vertex -3.626834e+01 -5.068592e+00 1.188048e+01
    endloop
  endfacet
  facet normal 0.000000e+00 -1.000000e+00 -7.450913e-09
    outer loop
      vertex -3.142213e+01 3.845399e+00 1.188048e+01
      vertex -3.680894e+01 3.845399e+00 6.821576e+00
      vertex -3.142213e+01 3.845399e+00 6.821576e+00
    endloop
  endfacet
  facet normal 0.000000e+00 -1.000000e+00 -7.450913e-09
    outer loop
      vertex -3.680894e+01 3.845399e+00 6.821576e+00
      vertex -3.142213e+01 3.845399e+00 1.188048e+01
      vertex -3.680894e+01 3.845399e+00 1.188048e+01
    endloop
  endfacet
  facet normal -5.129060e-09 -4.489274e-09 1.000000e+00
    outer loop
      vertex -3.626834e+01 -5.068592e+00 1.188048e+01
      vertex -3.680894e+01 3.845399e+00 1.188048e+01
      vertex -3.680894e+01 -5.068592e+00 1.188048e+01
    endloop
  endfacet
  facet normal -5.129060e-09 -4.489274e-09 1.000000e+00
    outer loop
      vertex -3.680894e+01 3.845399e+00 1.188048e+01
      vertex -3.626834e+01 -5.068592e+00 1.188048e+01
      vertex -3.142213e+01 3.845399e+00 1.188048e+01
    endloop
  endfacet
  facet normal -5.129060e-09 -4.489274e-09 1.000000e+00
    outer loop
      vertex -3.142213e+01 3.845399e+00 1.188048e+01
      vertex -3.626834e+01 -5.068592e+00 1.188048e+01
      vertex -3.142213e+01 -5.068592e+00 1.188048e+01
    endloop
  endfacet
  facet normal -2.520374e-27 1.490183e-08 -1.000000e+00
    outer loop
      vertex -3.680894e+01 3.845399e+00 6.821576e+00
      vertex -3.142213e+01 -5.068592e+00 6.821576e+00
      vertex -3.680894e+01 -5.068592e+00 6.821576e+00
    endloop
  endfacet
  facet normal -2.520374e-27 1.490183e-08 -1.000000e+00
    outer loop
      vertex -3.142213e+01 -5.068592e+00 6.821576e+00
      vertex -3.680894e+01 3.845399e+00 6.821576e+00
      vertex -3.142213e+01 3.845399e+00 6.821576e+00
    endloop
  endfacet
  facet normal -7.153531e-01 -0.000000e+00 -6.987632e-01
    outer loop
      vertex 2.418030e+01 2.294425e+01 1.302635e+01
      vertex 2.470640e+01 2.055141e+01 1.248776e+01
      vertex 2.418030e+01 2.055141e+01 1.302635e+01
    endloop
  endfacet
  facet normal -7.153531e-01 -0.000000e+00 -6.987632e-01
    outer loop
      vertex 2.470640e+01 2.055141e+01 1.248776e+01
      vertex 2.418030e+01 2.294425e+01 1.302635e+01
      vertex 2.470640e+01 2.294425e+01 1.248776e+01
    endloop
  endfacet
  facet normal -8.718312e-01 -0.000000e+00 -4.898064e-01
    outer loop
      vertex 2.470640e+01 2.294425e+01 1.248776e+01
      vertex 2.507516e+01 2.055141e+01 1.183137e+01
      vertex 2.470640e+01 2.055141e+01 1.248776e+01
    endloop
  endfacet
  facet normal -8.718312e-01 -0.000000e+00 -4.898064e-01
    outer loop
      vertex 2.507516e+01 2.055141e+01 1.183137e+01
      vertex 2.470640e+01 2.294425e+01 1.248776e+01
      vertex 2.507516e+01 2.294425e+01 1.183137e+01
    endloop
  endfacet
  facet normal -9.688956e-01 -0.000000e+00 -2.474701e-01
    outer loop
      vertex 2.507516e+01 2.294425e+01 1.183137e+01
      vertex 2.526149e+01 2.055141e+01 1.110189e+01
      vertex 2.507516e+01 2.055141e+01 1.183137e+01
    endloop
  endfacet
  facet normal -9.688956e-01 -0.000000e+00 -2.474701e-01
    outer loop
      vertex 2.526149e+01 2.055141e+01 1.110189e+01
      vertex 2.507516e+01 2.294425e+01 1.183137e+01
      vertex 2.526149e+01 2.294425e+01 1.110189e+01
    endloop
  endfacet
  facet normal -9.999312e-01 0.000000e+00 1.173084e-02
    outer loop
      vertex 2.526149e+01 2.294425e+01 1.110189e+01
      vertex 2.525265e+01 2.055141e+01 1.034905e+01
      vertex 2.526149e+01 2.055141e+01 1.110189e+01
    endloop
  endfacet
  facet normal -9.999312e-01 0.000000e+00 1.173084e-02
    outer loop
      vertex 2.525265e+01 2.055141e+01 1.034905e+01
      vertex 2.526149e+01 2.294425e+01 1.110189e+01
      vertex 2.525265e+01 2.294425e+01 1.034905e+01
    endloop
  endfacet
  facet normal -9.628232e-01 0.000000e+00 2.701324e-01
    outer loop
      vertex 2.525265e+01 2.294425e+01 1.034905e+01
      vertex 2.504927e+01 2.055141e+01 9.624148e+00
      vertex 2.525265e+01 2.055141e+01 1.034905e+01
    endloop
  endfacet
  facet normal -9.628232e-01 0.000000e+00 2.701324e-01
    outer loop
      vertex 2.504927e+01 2.055141e+01 9.624148e+00
      vertex 2.525265e+01 2.294425e+01 1.034905e+01
      vertex 2.504927e+01 2.294425e+01 9.624148e+00
    endloop
  endfacet
  facet normal -8.601004e-01 0.000000e+00 5.101248e-01
    outer loop
      vertex 2.504927e+01 2.294425e+01 9.624148e+00
      vertex 2.466521e+01 2.055141e+01 8.976585e+00
      vertex 2.504927e+01 2.055141e+01 9.624148e+00
    endloop
  endfacet
  facet normal -8.601004e-01 0.000000e+00 5.101248e-01
    outer loop
      vertex 2.466521e+01 2.055141e+01 8.976585e+00
      vertex 2.504927e+01 2.294425e+01 9.624148e+00
      vertex 2.466521e+01 2.294425e+01 8.976585e+00
    endloop
  endfacet
  facet normal -6.987632e-01 0.000000e+00 7.153531e-01
    outer loop
      vertex 2.466521e+01 2.055141e+01 8.976585e+00
      vertex 2.412661e+01 2.294425e+01 8.450490e+00
      vertex 2.412661e+01 2.055141e+01 8.450490e+00
    endloop
  endfacet
  facet normal -6.987632e-01 0.000000e+00 7.153531e-01
    outer loop
      vertex 2.412661e+01 2.294425e+01 8.450490e+00
      vertex 2.466521e+01 2.055141e+01 8.976585e+00
      vertex 2.466521e+01 2.294425e+01 8.976585e+00
    endloop
  endfacet
  facet normal -4.898064e-01 0.000000e+00 8.718312e-01
    outer loop
      vertex 2.412661e+01 2.055141e+01 8.450490e+00
      vertex 2.347022e+01 2.294425e+01 8.081719e+00
      vertex 2.347022e+01 2.055141e+01 8.081719e+00
    endloop
  endfacet
  facet normal -4.898064e-01 0.000000e+00 8.718312e-01
    outer loop
      vertex 2.347022e+01 2.294425e+01 8.081719e+00
      vertex 2.412661e+01 2.055141e+01 8.450490e+00
      vertex 2.412661e+01 2.294425e+01 8.450490e+00
    endloop
  endfacet
  facet normal -2.474701e-01 0.000000e+00 9.688956e-01
    outer loop
      vertex 2.347022e+01 2.055141e+01 8.081719e+00
      vertex 2.274075e+01 2.294425e+01 7.895401e+00
      vertex 2.274075e+01 2.055141e+01 7.895401e+00
    endloop
  endfacet
  facet normal -2.474701e-01 0.000000e+00 9.688956e-01
    outer loop
      vertex 2.274075e+01 2.294425e+01 7.895401e+00
      vertex 2.347022e+01 2.055141e+01 8.081719e+00
      vertex 2.347022e+01 2.294425e+01 8.081719e+00
    endloop
  endfacet
  facet normal 1.173084e-02 0.000000e+00 9.999312e-01
    outer loop
      vertex 2.274075e+01 2.055141e+01 7.895401e+00
      vertex 2.198790e+01 2.294425e+01 7.904232e+00
      vertex 2.198790e+01 2.055141e+01 7.904232e+00
    endloop
  endfacet
  facet normal 1.173084e-02 0.000000e+00 9.999312e-01
    outer loop
      vertex 2.198790e+01 2.294425e+01 7.904232e+00
      vertex 2.274075e+01 2.055141e+01 7.895401e+00
      vertex 2.274075e+01 2.294425e+01 7.895401e+00
    endloop
  endfacet
  facet normal 2.701324e-01 0.000000e+00 9.628232e-01
    outer loop
      vertex 2.198790e+01 2.055141e+01 7.904232e+00
      vertex 2.126300e+01 2.294425e+01 8.107613e+00
      vertex 2.126300e+01 2.055141e+01 8.107613e+00
    endloop
  endfacet
  facet normal 2.701324e-01 0.000000e+00 9.628232e-01
    outer loop
      vertex 2.126300e+01 2.294425e+01 8.107613e+00
      vertex 2.198790e+01 2.055141e+01 7.904232e+00
      vertex 2.198790e+01 2.294425e+01 7.904232e+00
    endloop
  endfacet
  facet normal 5.101248e-01 0.000000e+00 8.601004e-01
    outer loop
      vertex 2.126300e+01 2.055141e+01 8.107613e+00
      vertex 2.061544e+01 2.294425e+01 8.491683e+00
      vertex 2.061544e+01 2.055141e+01 8.491683e+00
    endloop
  endfacet
  facet normal 5.101248e-01 0.000000e+00 8.601004e-01
    outer loop
      vertex 2.061544e+01 2.294425e+01 8.491683e+00
      vertex 2.126300e+01 2.055141e+01 8.107613e+00
      vertex 2.126300e+01 2.294425e+01 8.107613e+00
    endloop
  endfacet
  facet normal 7.153531e-01 0.000000e+00 6.987632e-01
    outer loop
      vertex 2.061544e+01 2.294425e+01 8.491683e+00
      vertex 2.008935e+01 2.055141e+01 9.030267e+00
      vertex 2.061544e+01 2.055141e+01 8.491683e+00
    endloop
  endfacet
  facet normal 7.153531e-01 0.000000e+00 6.987632e-01
    outer loop
      vertex 2.008935e+01 2.055141e+01 9.030267e+00
      vertex 2.061544e+01 2.294425e+01 8.491683e+00
      vertex 2.008935e+01 2.294425e+01 9.030267e+00
    endloop
  endfacet
  facet normal 8.718312e-01 0.000000e+00 4.898064e-01
    outer loop
      vertex 2.008935e+01 2.294425e+01 9.030267e+00
      vertex 1.972057e+01 2.055141e+01 9.686663e+00
      vertex 2.008935e+01 2.055141e+01 9.030267e+00
    endloop
  endfacet
  facet normal 8.718312e-01 0.000000e+00 4.898064e-01
    outer loop
      vertex 1.972057e+01 2.055141e+01 9.686663e+00
      vertex 2.008935e+01 2.294425e+01 9.030267e+00
      vertex 1.972057e+01 2.294425e+01 9.686663e+00
    endloop
  endfacet
  facet normal 9.688956e-01 0.000000e+00 2.474701e-01
    outer loop
      vertex 1.972057e+01 2.294425e+01 9.686663e+00
      vertex 1.953426e+01 2.055141e+01 1.041614e+01
      vertex 1.972057e+01 2.055141e+01 9.686663e+00
    endloop
  endfacet
  facet normal 9.688956e-01 0.000000e+00 2.474701e-01
    outer loop
      vertex 1.953426e+01 2.055141e+01 1.041614e+01
      vertex 1.972057e+01 2.294425e+01 9.686663e+00
      vertex 1.953426e+01 2.294425e+01 1.041614e+01
    endloop
  endfacet
  facet normal 9.999312e-01 0.000000e+00 -1.173084e-02
    outer loop
      vertex 1.953426e+01 2.294425e+01 1.041614e+01
      vertex 1.954309e+01 2.055141e+01 1.116898e+01
      vertex 1.953426e+01 2.055141e+01 1.041614e+01
    endloop
  endfacet
  facet normal 9.999312e-01 0.000000e+00 -1.173084e-02
    outer loop
      vertex 1.954309e+01 2.055141e+01 1.116898e+01
      vertex 1.953426e+01 2.294425e+01 1.041614e+01
      vertex 1.954309e+01 2.294425e+01 1.116898e+01
    endloop
  endfacet
  facet normal 9.628232e-01 0.000000e+00 -2.701324e-01
    outer loop
      vertex 1.954309e+01 2.294425e+01 1.116898e+01
      vertex 1.974647e+01 2.055141e+01 1.189388e+01
      vertex 1.954309e+01 2.055141e+01 1.116898e+01
    endloop
  endfacet
  facet normal 9.628232e-01 0.000000e+00 -2.701324e-01
    outer loop
      vertex 1.974647e+01 2.055141e+01 1.189388e+01
      vertex 1.954309e+01 2.294425e+01 1.116898e+01
      vertex 1.974647e+01 2.294425e+01 1.189388e+01
    endloop
  endfacet
  facet normal 8.601004e-01 0.000000e+00 -5.101248e-01
    outer loop
      vertex 1.974647e+01 2.294425e+01 1.189388e+01
      vertex 2.013054e+01 2.055141e+01 1.254144e+01
      vertex 1.974647e+01 2.055141e+01 1.189388e+01
    endloop
  endfacet
  facet normal 8.601004e-01 0.000000e+00 -5.101248e-01
    outer loop
      vertex 2.013054e+01 2.055141e+01 1.254144e+01
      vertex 1.974647e+01 2.294425e+01 1.189388e+01
      vertex 2.013054e+01 2.294425e+01 1.254144e+01
    endloop
  endfacet
  facet normal 6.987632e-01 0.000000e+00 -7.153531e-01
    outer loop
      vertex 2.066912e+01 2.294425e+01 1.306754e+01
      vertex 2.013054e+01 2.055141e+01 1.254144e+01
      vertex 2.013054e+01 2.294425e+01 1.254144e+01
    endloop
  endfacet
  facet normal 6.987632e-01 0.000000e+00 -7.153531e-01
    outer loop
      vertex 2.013054e+01 2.055141e+01 1.254144e+01
      vertex 2.066912e+01 2.294425e+01 1.306754e+01
      vertex 2.066912e+01 2.055141e+01 1.306754e+01
    endloop
  endfacet
  facet normal 4.898064e-01 0.000000e+00 -8.718312e-01
    outer loop
      vertex 2.132551e+01 2.294425e+01 1.343631e+01
      vertex 2.066912e+01 2.055141e+01 1.306754e+01
      vertex 2.066912e+01 2.294425e+01 1.306754e+01
    endloop
  endfacet
  facet normal 4.898064e-01 0.000000e+00 -8.718312e-01
    outer loop
      vertex 2.066912e+01 2.055141e+01 1.306754e+01
      vertex 2.132551e+01 2.294425e+01 1.343631e+01
      vertex 2.132551e+01 2.055141e+01 1.343631e+01
    endloop
  endfacet
  facet normal 2.474701e-01 0.000000e+00 -9.688956e-01
    outer loop
      vertex 2.205499e+01 2.294425e+01 1.362263e+01
      vertex 2.132551e+01 2.055141e+01 1.343631e+01
      vertex 2.132551e+01 2.294425e+01 1.343631e+01
    endloop
  endfacet
  facet normal 2.474701e-01 0.000000e+00 -9.688956e-01
    outer loop
      vertex 2.132551e+01 2.055141e+01 1.343631e+01
      vertex 2.205499e+01 2.294425e+01 1.362263e+01
      vertex 2.205499e+01 2.055141e+01 1.362263e+01
    endloop
  endfacet
  facet normal -1.173084e-02 -0.000000e+00 -9.999312e-01
    outer loop
      vertex 2.280783e+01 2.294425e+01 1.361380e+01
      vertex 2.205499e+01 2.055141e+01 1.362263e+01
      vertex 2.205499e+01 2.294425e+01 1.362263e+01
    endloop
  endfacet
  facet normal -1.173084e-02 -0.000000e+00 -9.999312e-01
    outer loop
      vertex 2.205499e+01 2.055141e+01 1.362263e+01
      vertex 2.280783e+01 2.294425e+01 1.361380e+01
      vertex 2.280783e+01 2.055141e+01 1.361380e+01
    endloop
  endfacet
  facet normal -2.701324e-01 -0.000000e+00 -9.628232e-01
    outer loop
      vertex 2.353273e+01 2.294425e+01 1.341042e+01
      vertex 2.280783e+01 2.055141e+01 1.361380e+01
      vertex 2.280783e+01 2.294425e+01 1.361380e+01
    endloop
  endfacet
  facet normal -2.701324e-01 -0.000000e+00 -9.628232e-01
    outer loop
      vertex 2.280783e+01 2.055141e+01 1.361380e+01
      vertex 2.353273e+01 2.294425e+01 1.341042e+01
      vertex 2.353273e+01 2.055141e+01 1.341042e+01
    endloop
  endfacet
  facet normal -5.101248e-01 -0.000000e+00 -8.601004e-01
    outer loop
      vertex 2.418030e+01 2.294425e+01 1.302635e+01
      vertex 2.353273e+01 2.055141e+01 1.341042e+01
      vertex 2.353273e+01 2.294425e+01 1.341042e+01
    endloop
  endfacet
  facet normal -5.101248e-01 -0.000000e+00 -8.601004e-01
    outer loop
      vertex 2.353273e+01 2.055141e+01 1.341042e+01
      vertex 2.418030e+01 2.294425e+01 1.302635e+01
      vertex 2.418030e+01 2.055141e+01 1.302635e+01
    endloop
  endfacet
  facet normal 5.650280e-01 0.000000e+00 -8.250717e-01
    outer loop
      vertex -1.679228e+01 -2.039127e+01 1.328726e+01
      vertex -1.759431e+01 -2.294425e+01 1.273801e+01
      vertex -1.759431e+01 -2.039127e+01 1.273801e+01
    endloop
  endfacet
  facet normal 5.650280e-01 0.000000e+00 -8.250717e-01
    outer loop
      vertex -1.759431e+01 -2.294425e+01 1.273801e+01
      vertex -1.679228e+01 -2.039127e+01 1.328726e+01
      vertex -1.679228e+01 -2.294425e+01 1.328726e+01
    endloop
  endfacet
  facet normal 7.593195e-01 0.000000e+00 -6.507181e-01
    outer loop
      vertex -1.822686e+01 -2.039127e+01 1.199990e+01
      vertex -1.759431e+01 -2.294425e+01 1.273801e+01
      vertex -1.822686e+01 -2.294425e+01 1.199990e+01
    endloop
  endfacet
  facet normal 7.593195e-01 0.000000e+00 -6.507181e-01
    outer loop
      vertex -1.759431e+01 -2.294425e+01 1.273801e+01
      vertex -1.822686e+01 -2.039127e+01 1.199990e+01
      vertex -1.759431e+01 -2.039127e+01 1.273801e+01
    endloop
  endfacet
  facet normal 9.018645e-01 0.000000e+00 -4.320191e-01
    outer loop
      vertex -1.864681e+01 -2.039127e+01 1.112322e+01
      vertex -1.822686e+01 -2.294425e+01 1.199990e+01
      vertex -1.864681e+01 -2.294425e+01 1.112322e+01
    endloop
  endfacet
  facet normal 9.018645e-01 0.000000e+00 -4.320191e-01
    outer loop
      vertex -1.822686e+01 -2.294425e+01 1.199990e+01
      vertex -1.864681e+01 -2.039127e+01 1.112322e+01
      vertex -1.822686e+01 -2.039127e+01 1.199990e+01
    endloop
  endfacet
  facet normal 9.829490e-01 0.000000e+00 -1.838786e-01
    outer loop
      vertex -1.882555e+01 -2.039127e+01 1.016772e+01
      vertex -1.864681e+01 -2.294425e+01 1.112322e+01
      vertex -1.882555e+01 -2.294425e+01 1.016772e+01
    endloop
  endfacet
  facet normal 9.829490e-01 0.000000e+00 -1.838786e-01
    outer loop
      vertex -1.864681e+01 -2.294425e+01 1.112322e+01
      vertex -1.882555e+01 -2.039127e+01 1.016772e+01
      vertex -1.864681e+01 -2.039127e+01 1.112322e+01
    endloop
  endfacet
  facet normal 9.970471e-01 0.000000e+00 7.679278e-02
    outer loop
      vertex -1.875091e+01 -2.039127e+01 9.198520e+00
      vertex -1.882555e+01 -2.294425e+01 1.016772e+01
      vertex -1.875091e+01 -2.294425e+01 9.198520e+00
    endloop
  endfacet
  facet normal 9.970471e-01 0.000000e+00 7.679278e-02
    outer loop
      vertex -1.882555e+01 -2.294425e+01 1.016772e+01
      vertex -1.875091e+01 -2.039127e+01 9.198520e+00
      vertex -1.882555e+01 -2.039127e+01 1.016772e+01
    endloop
  endfacet
  facet normal 9.431981e-01 0.000000e+00 3.322309e-01
    outer loop
      vertex -1.842795e+01 -2.039127e+01 8.281664e+00
      vertex -1.875091e+01 -2.294425e+01 9.198520e+00
      vertex -1.842795e+01 -2.294425e+01 8.281664e+00
    endloop
  endfacet
  facet normal 9.431981e-01 0.000000e+00 3.322309e-01
    outer loop
      vertex -1.875091e+01 -2.294425e+01 9.198520e+00
      vertex -1.842795e+01 -2.039127e+01 8.281664e+00
      vertex -1.875091e+01 -2.039127e+01 9.198520e+00
    endloop
  endfacet
  facet normal 8.250717e-01 0.000000e+00 5.650280e-01
    outer loop
      vertex -1.787871e+01 -2.039127e+01 7.479635e+00
      vertex -1.842795e+01 -2.294425e+01 8.281664e+00
      vertex -1.787871e+01 -2.294425e+01 7.479635e+00
    endloop
  endfacet
  facet normal 8.250717e-01 0.000000e+00 5.650280e-01
    outer loop
      vertex -1.842795e+01 -2.294425e+01 8.281664e+00
      vertex -1.787871e+01 -2.039127e+01 7.479635e+00
      vertex -1.842795e+01 -2.039127e+01 8.281664e+00
    endloop
  endfacet
  facet normal 6.507181e-01 0.000000e+00 7.593195e-01
    outer loop
      vertex -1.714059e+01 -2.294425e+01 6.847091e+00
      vertex -1.787871e+01 -2.039127e+01 7.479635e+00
      vertex -1.787871e+01 -2.294425e+01 7.479635e+00
    endloop
  endfacet
  facet normal 6.507181e-01 0.000000e+00 7.593195e-01
    outer loop
      vertex -1.787871e+01 -2.039127e+01 7.479635e+00
      vertex -1.714059e+01 -2.294425e+01 6.847091e+00
      vertex -1.714059e+01 -2.039127e+01 6.847091e+00
    endloop
  endfacet
  facet normal 4.320191e-01 0.000000e+00 9.018645e-01
    outer loop
      vertex -1.626391e+01 -2.294425e+01 6.427137e+00
      vertex -1.714059e+01 -2.039127e+01 6.847091e+00
      vertex -1.714059e+01 -2.294425e+01 6.847091e+00
    endloop
  endfacet
  facet normal 4.320191e-01 0.000000e+00 9.018645e-01
    outer loop
      vertex -1.714059e+01 -2.039127e+01 6.847091e+00
      vertex -1.626391e+01 -2.294425e+01 6.427137e+00
      vertex -1.626391e+01 -2.039127e+01 6.427137e+00
    endloop
  endfacet
  facet normal 1.838786e-01 0.000000e+00 9.829490e-01
    outer loop
      vertex -1.530842e+01 -2.294425e+01 6.248394e+00
      vertex -1.626391e+01 -2.039127e+01 6.427137e+00
      vertex -1.626391e+01 -2.294425e+01 6.427137e+00
    endloop
  endfacet
  facet normal 1.838786e-01 0.000000e+00 9.829490e-01
    outer loop
      vertex -1.626391e+01 -2.039127e+01 6.427137e+00
      vertex -1.530842e+01 -2.294425e+01 6.248394e+00
      vertex -1.530842e+01 -2.039127e+01 6.248394e+00
    endloop
  endfacet
  facet normal -7.679278e-02 0.000000e+00 9.970471e-01
    outer loop
      vertex -1.433922e+01 -2.294425e+01 6.323042e+00
      vertex -1.530842e+01 -2.039127e+01 6.248394e+00
      vertex -1.530842e+01 -2.294425e+01 6.248394e+00
    endloop
  endfacet
  facet normal -7.679278e-02 0.000000e+00 9.970471e-01
    outer loop
      vertex -1.530842e+01 -2.039127e+01 6.248394e+00
      vertex -1.433922e+01 -2.294425e+01 6.323042e+00
      vertex -1.433922e+01 -2.039127e+01 6.323042e+00
    endloop
  endfacet
  facet normal -3.322309e-01 0.000000e+00 9.431981e-01
    outer loop
      vertex -1.342235e+01 -2.294425e+01 6.645994e+00
      vertex -1.433922e+01 -2.039127e+01 6.323042e+00
      vertex -1.433922e+01 -2.294425e+01 6.323042e+00
    endloop
  endfacet
  facet normal -3.322309e-01 0.000000e+00 9.431981e-01
    outer loop
      vertex -1.433922e+01 -2.039127e+01 6.323042e+00
      vertex -1.342235e+01 -2.294425e+01 6.645994e+00
      vertex -1.342235e+01 -2.039127e+01 6.645994e+00
    endloop
  endfacet
  facet normal -5.650280e-01 0.000000e+00 8.250717e-01
    outer loop
      vertex -1.262033e+01 -2.294425e+01 7.195242e+00
      vertex -1.342235e+01 -2.039127e+01 6.645994e+00
      vertex -1.342235e+01 -2.294425e+01 6.645994e+00
    endloop
  endfacet
  facet normal -5.650280e-01 0.000000e+00 8.250717e-01
    outer loop
      vertex -1.342235e+01 -2.039127e+01 6.645994e+00
      vertex -1.262033e+01 -2.294425e+01 7.195242e+00
      vertex -1.262033e+01 -2.039127e+01 7.195242e+00
    endloop
  endfacet
  facet normal -7.593195e-01 0.000000e+00 6.507181e-01
    outer loop
      vertex -1.198779e+01 -2.039127e+01 7.933355e+00
      vertex -1.262033e+01 -2.294425e+01 7.195242e+00
      vertex -1.198779e+01 -2.294425e+01 7.933355e+00
    endloop
  endfacet
  facet normal -7.593195e-01 0.000000e+00 6.507181e-01
    outer loop
      vertex -1.262033e+01 -2.294425e+01 7.195242e+00
      vertex -1.198779e+01 -2.039127e+01 7.933355e+00
      vertex -1.262033e+01 -2.039127e+01 7.195242e+00
    endloop
  endfacet
  facet normal -9.018645e-01 0.000000e+00 4.320191e-01
    outer loop
      vertex -1.156783e+01 -2.039127e+01 8.810032e+00
      vertex -1.198779e+01 -2.294425e+01 7.933355e+00
      vertex -1.156783e+01 -2.294425e+01 8.810032e+00
    endloop
  endfacet
  facet normal -9.018645e-01 0.000000e+00 4.320191e-01
    outer loop
      vertex -1.198779e+01 -2.294425e+01 7.933355e+00
      vertex -1.156783e+01 -2.039127e+01 8.810032e+00
      vertex -1.198779e+01 -2.039127e+01 7.933355e+00
    endloop
  endfacet
  facet normal -9.829490e-01 0.000000e+00 1.838786e-01
    outer loop
      vertex -1.138908e+01 -2.039127e+01 9.765529e+00
      vertex -1.156783e+01 -2.294425e+01 8.810032e+00
      vertex -1.138908e+01 -2.294425e+01 9.765529e+00
    endloop
  endfacet
  facet normal -9.829490e-01 0.000000e+00 1.838786e-01
    outer loop
      vertex -1.156783e+01 -2.294425e+01 8.810032e+00
      vertex -1.138908e+01 -2.039127e+01 9.765529e+00
      vertex -1.156783e+01 -2.039127e+01 8.810032e+00
    endloop
  endfacet
  facet normal -9.970471e-01 -0.000000e+00 -7.679278e-02
    outer loop
      vertex -1.146374e+01 -2.039127e+01 1.073473e+01
      vertex -1.138908e+01 -2.294425e+01 9.765529e+00
      vertex -1.146374e+01 -2.294425e+01 1.073473e+01
    endloop
  endfacet
  facet normal -9.970471e-01 -0.000000e+00 -7.679278e-02
    outer loop
      vertex -1.138908e+01 -2.294425e+01 9.765529e+00
      vertex -1.146374e+01 -2.039127e+01 1.073473e+01
      vertex -1.138908e+01 -2.039127e+01 9.765529e+00
    endloop
  endfacet
  facet normal -9.431981e-01 -0.000000e+00 -3.322309e-01
    outer loop
      vertex -1.178669e+01 -2.039127e+01 1.165159e+01
      vertex -1.146374e+01 -2.294425e+01 1.073473e+01
      vertex -1.178669e+01 -2.294425e+01 1.165159e+01
    endloop
  endfacet
  facet normal -9.431981e-01 -0.000000e+00 -3.322309e-01
    outer loop
      vertex -1.146374e+01 -2.294425e+01 1.073473e+01
      vertex -1.178669e+01 -2.039127e+01 1.165159e+01
      vertex -1.146374e+01 -2.039127e+01 1.073473e+01
    endloop
  endfacet
  facet normal -8.250717e-01 -0.000000e+00 -5.650280e-01
    outer loop
      vertex -1.233594e+01 -2.039127e+01 1.245361e+01
      vertex -1.178669e+01 -2.294425e+01 1.165159e+01
      vertex -1.233594e+01 -2.294425e+01 1.245361e+01
    endloop
  endfacet
  facet normal -8.250717e-01 -0.000000e+00 -5.650280e-01
    outer loop
      vertex -1.178669e+01 -2.294425e+01 1.165159e+01
      vertex -1.233594e+01 -2.039127e+01 1.245361e+01
      vertex -1.178669e+01 -2.039127e+01 1.165159e+01
    endloop
  endfacet
  facet normal -6.507181e-01 -0.000000e+00 -7.593195e-01
    outer loop
      vertex -1.233594e+01 -2.039127e+01 1.245361e+01
      vertex -1.307405e+01 -2.294425e+01 1.308616e+01
      vertex -1.307405e+01 -2.039127e+01 1.308616e+01
    endloop
  endfacet
  facet normal -6.507181e-01 -0.000000e+00 -7.593195e-01
    outer loop
      vertex -1.307405e+01 -2.294425e+01 1.308616e+01
      vertex -1.233594e+01 -2.039127e+01 1.245361e+01
      vertex -1.233594e+01 -2.294425e+01 1.245361e+01
    endloop
  endfacet
  facet normal -4.320191e-01 -0.000000e+00 -9.018645e-01
    outer loop
      vertex -1.307405e+01 -2.039127e+01 1.308616e+01
      vertex -1.395073e+01 -2.294425e+01 1.350611e+01
      vertex -1.395073e+01 -2.039127e+01 1.350611e+01
    endloop
  endfacet
  facet normal -4.320191e-01 -0.000000e+00 -9.018645e-01
    outer loop
      vertex -1.395073e+01 -2.294425e+01 1.350611e+01
      vertex -1.307405e+01 -2.039127e+01 1.308616e+01
      vertex -1.307405e+01 -2.294425e+01 1.308616e+01
    endloop
  endfacet
  facet normal -1.838786e-01 -0.000000e+00 -9.829490e-01
    outer loop
      vertex -1.395073e+01 -2.039127e+01 1.350611e+01
      vertex -1.490623e+01 -2.294425e+01 1.368486e+01
      vertex -1.490623e+01 -2.039127e+01 1.368486e+01
    endloop
  endfacet
  facet normal -1.838786e-01 -0.000000e+00 -9.829490e-01
    outer loop
      vertex -1.490623e+01 -2.294425e+01 1.368486e+01
      vertex -1.395073e+01 -2.039127e+01 1.350611e+01
      vertex -1.395073e+01 -2.294425e+01 1.350611e+01
    endloop
  endfacet
  facet normal 7.679278e-02 0.000000e+00 -9.970471e-01
    outer loop
      vertex -1.490623e+01 -2.039127e+01 1.368486e+01
      vertex -1.587543e+01 -2.294425e+01 1.361021e+01
      vertex -1.587543e+01 -2.039127e+01 1.361021e+01
    endloop
  endfacet
  facet normal 7.679278e-02 0.000000e+00 -9.970471e-01
    outer loop
      vertex -1.587543e+01 -2.294425e+01 1.361021e+01
      vertex -1.490623e+01 -2.039127e+01 1.368486e+01
      vertex -1.490623e+01 -2.294425e+01 1.368486e+01
    endloop
  endfacet
  facet normal 3.322309e-01 0.000000e+00 -9.431981e-01
    outer loop
      vertex -1.587543e+01 -2.039127e+01 1.361021e+01
      vertex -1.679228e+01 -2.294425e+01 1.328726e+01
      vertex -1.679228e+01 -2.039127e+01 1.328726e+01
    endloop
  endfacet
  facet normal 3.322309e-01 0.000000e+00 -9.431981e-01
    outer loop
      vertex -1.679228e+01 -2.294425e+01 1.328726e+01
      vertex -1.587543e+01 -2.039127e+01 1.361021e+01
      vertex -1.587543e+01 -2.294425e+01 1.361021e+01
    endloop
  endfacet
  facet normal 9.238795e-01 0.000000e+00 -3.826834e-01
    outer loop
      vertex -3.971902e+00 -2.038534e+01 1.089790e+01
      vertex -3.612440e+00 -2.294425e+01 1.176572e+01
      vertex -3.971902e+00 -2.294425e+01 1.089790e+01
    endloop
  endfacet
  facet normal 9.238795e-01 0.000000e+00 -3.826834e-01
    outer loop
      vertex -3.612440e+00 -2.294425e+01 1.176572e+01
      vertex -3.971902e+00 -2.038534e+01 1.089790e+01
      vertex -3.612440e+00 -2.038534e+01 1.176572e+01
    endloop
  endfacet
  facet normal 9.914448e-01 0.000000e+00 -1.305262e-01
    outer loop
      vertex -4.094508e+00 -2.038534e+01 9.966625e+00
      vertex -3.971902e+00 -2.294425e+01 1.089790e+01
      vertex -4.094508e+00 -2.294425e+01 9.966625e+00
    endloop
  endfacet
  facet normal 9.914448e-01 0.000000e+00 -1.305262e-01
    outer loop
      vertex -3.971902e+00 -2.294425e+01 1.089790e+01
      vertex -4.094508e+00 -2.038534e+01 9.966625e+00
      vertex -3.971902e+00 -2.038534e+01 1.089790e+01
    endloop
  endfacet
  facet normal 9.914448e-01 0.000000e+00 1.305262e-01
    outer loop
      vertex -3.971902e+00 -2.038534e+01 9.035347e+00
      vertex -4.094508e+00 -2.294425e+01 9.966625e+00
      vertex -3.971902e+00 -2.294425e+01 9.035347e+00
    endloop
  endfacet
  facet normal 9.914448e-01 0.000000e+00 1.305262e-01
    outer loop
      vertex -4.094508e+00 -2.294425e+01 9.966625e+00
      vertex -3.971902e+00 -2.038534e+01 9.035347e+00
      vertex -4.094508e+00 -2.038534e+01 9.966625e+00
    endloop
  endfacet
  facet normal 9.238795e-01 0.000000e+00 3.826834e-01
    outer loop
      vertex -3.612440e+00 -2.038534e+01 8.167534e+00
      vertex -3.971902e+00 -2.294425e+01 9.035347e+00
      vertex -3.612440e+00 -2.294425e+01 8.167534e+00
    endloop
  endfacet
  facet normal 9.238795e-01 0.000000e+00 3.826834e-01
    outer loop
      vertex -3.971902e+00 -2.294425e+01 9.035347e+00
      vertex -3.612440e+00 -2.038534e+01 8.167534e+00
      vertex -3.971902e+00 -2.038534e+01 9.035347e+00
    endloop
  endfacet
  facet normal 7.933533e-01 0.000000e+00 6.087614e-01
    outer loop
      vertex -3.040624e+00 -2.038534e+01 7.422326e+00
      vertex -3.612440e+00 -2.294425e+01 8.167534e+00
      vertex -3.040624e+00 -2.294425e+01 7.422326e+00
    endloop
  endfacet
  facet normal 7.933533e-01 0.000000e+00 6.087614e-01
    outer loop
      vertex -3.612440e+00 -2.294425e+01 8.167534e+00
      vertex -3.040624e+00 -2.038534e+01 7.422326e+00
      vertex -3.612440e+00 -2.038534e+01 8.167534e+00
    endloop
  endfacet
  facet normal 6.087614e-01 0.000000e+00 7.933533e-01
    outer loop
      vertex -2.295418e+00 -2.294425e+01 6.850508e+00
      vertex -3.040624e+00 -2.038534e+01 7.422326e+00
      vertex -3.040624e+00 -2.294425e+01 7.422326e+00
    endloop
  endfacet
  facet normal 6.087614e-01 0.000000e+00 7.933533e-01
    outer loop
      vertex -3.040624e+00 -2.038534e+01 7.422326e+00
      vertex -2.295418e+00 -2.294425e+01 6.850508e+00
      vertex -2.295418e+00 -2.038534e+01 6.850508e+00
    endloop
  endfacet
  facet normal 3.826834e-01 0.000000e+00 9.238795e-01
    outer loop
      vertex -1.427605e+00 -2.294425e+01 6.491048e+00
      vertex -2.295418e+00 -2.038534e+01 6.850508e+00
      vertex -2.295418e+00 -2.294425e+01 6.850508e+00
    endloop
  endfacet
  facet normal 3.826834e-01 0.000000e+00 9.238795e-01
    outer loop
      vertex -2.295418e+00 -2.038534e+01 6.850508e+00
      vertex -1.427605e+00 -2.294425e+01 6.491048e+00
      vertex -1.427605e+00 -2.038534e+01 6.491048e+00
    endloop
  endfacet
  facet normal 1.305262e-01 0.000000e+00 9.914448e-01
    outer loop
      vertex -4.963269e-01 -2.294425e+01 6.368443e+00
      vertex -1.427605e+00 -2.038534e+01 6.491048e+00
      vertex -1.427605e+00 -2.294425e+01 6.491048e+00
    endloop
  endfacet
  facet normal 1.305262e-01 0.000000e+00 9.914448e-01
    outer loop
      vertex -1.427605e+00 -2.038534e+01 6.491048e+00
      vertex -4.963269e-01 -2.294425e+01 6.368443e+00
      vertex -4.963269e-01 -2.038534e+01 6.368443e+00
    endloop
  endfacet
  facet normal -1.305262e-01 0.000000e+00 9.914448e-01
    outer loop
      vertex 4.349510e-01 -2.294425e+01 6.491048e+00
      vertex -4.963269e-01 -2.038534e+01 6.368443e+00
      vertex -4.963269e-01 -2.294425e+01 6.368443e+00
    endloop
  endfacet
  facet normal -1.305262e-01 0.000000e+00 9.914448e-01
    outer loop
      vertex -4.963269e-01 -2.038534e+01 6.368443e+00
      vertex 4.349510e-01 -2.294425e+01 6.491048e+00
      vertex 4.349510e-01 -2.038534e+01 6.491048e+00
    endloop
  endfacet
  facet normal -3.826834e-01 0.000000e+00 9.238795e-01
    outer loop
      vertex 1.302764e+00 -2.294425e+01 6.850508e+00
      vertex 4.349510e-01 -2.038534e+01 6.491048e+00
      vertex 4.349510e-01 -2.294425e+01 6.491048e+00
    endloop
  endfacet
  facet normal -3.826834e-01 0.000000e+00 9.238795e-01
    outer loop
      vertex 4.349510e-01 -2.038534e+01 6.491048e+00
      vertex 1.302764e+00 -2.294425e+01 6.850508e+00
      vertex 1.302764e+00 -2.038534e+01 6.850508e+00
    endloop
  endfacet
  facet normal -6.087614e-01 0.000000e+00 7.933533e-01
    outer loop
      vertex 2.047970e+00 -2.294425e+01 7.422326e+00
      vertex 1.302764e+00 -2.038534e+01 6.850508e+00
      vertex 1.302764e+00 -2.294425e+01 6.850508e+00
    endloop
  endfacet
  facet normal -6.087614e-01 0.000000e+00 7.933533e-01
    outer loop
      vertex 1.302764e+00 -2.038534e+01 6.850508e+00
      vertex 2.047970e+00 -2.294425e+01 7.422326e+00
      vertex 2.047970e+00 -2.038534e+01 7.422326e+00
    endloop
  endfacet
  facet normal -7.933533e-01 0.000000e+00 6.087614e-01
    outer loop
      vertex 2.619786e+00 -2.038534e+01 8.167534e+00
      vertex 2.047970e+00 -2.294425e+01 7.422326e+00
      vertex 2.619786e+00 -2.294425e+01 8.167534e+00
    endloop
  endfacet
  facet normal -7.933533e-01 0.000000e+00 6.087614e-01
    outer loop
      vertex 2.047970e+00 -2.294425e+01 7.422326e+00
      vertex 2.619786e+00 -2.038534e+01 8.167534e+00
      vertex 2.047970e+00 -2.038534e+01 7.422326e+00
    endloop
  endfacet
  facet normal -9.238795e-01 0.000000e+00 3.826834e-01
    outer loop
      vertex 2.979248e+00 -2.038534e+01 9.035347e+00
      vertex 2.619786e+00 -2.294425e+01 8.167534e+00
      vertex 2.979248e+00 -2.294425e+01 9.035347e+00
    endloop
  endfacet
  facet normal -9.238795e-01 0.000000e+00 3.826834e-01
    outer loop
      vertex 2.619786e+00 -2.294425e+01 8.167534e+00
      vertex 2.979248e+00 -2.038534e+01 9.035347e+00
      vertex 2.619786e+00 -2.038534e+01 8.167534e+00
    endloop
  endfacet
  facet normal -9.914448e-01 -1.458818e-18 1.305262e-01
    outer loop
      vertex 3.101855e+00 -2.038534e+01 9.966625e+00
      vertex 2.979248e+00 -2.294425e+01 9.035347e+00
      vertex 3.101855e+00 -2.294425e+01 9.966625e+00
    endloop
  endfacet
  facet normal -9.914448e-01 -1.458818e-18 1.305262e-01
    outer loop
      vertex 2.979248e+00 -2.294425e+01 9.035347e+00
      vertex 3.101855e+00 -2.038534e+01 9.966625e+00
      vertex 2.979248e+00 -2.038534e+01 9.035347e+00
    endloop
  endfacet
  facet normal -9.914448e-01 2.917637e-18 -1.305262e-01
    outer loop
      vertex 2.979248e+00 -2.038534e+01 1.089790e+01
      vertex 3.101855e+00 -2.294425e+01 9.966625e+00
      vertex 2.979248e+00 -2.294425e+01 1.089790e+01
    endloop
  endfacet
  facet normal -9.914448e-01 2.917637e-18 -1.305262e-01
    outer loop
      vertex 3.101855e+00 -2.294425e+01 9.966625e+00
      vertex 2.979248e+00 -2.038534e+01 1.089790e+01
      vertex 3.101855e+00 -2.038534e+01 9.966625e+00
    endloop
  endfacet
  facet normal -9.238795e-01 -0.000000e+00 -3.826834e-01
    outer loop
      vertex 2.619786e+00 -2.038534e+01 1.176572e+01
      vertex 2.979248e+00 -2.294425e+01 1.089790e+01
      vertex 2.619786e+00 -2.294425e+01 1.176572e+01
    endloop
  endfacet
  facet normal -9.238795e-01 -0.000000e+00 -3.826834e-01
    outer loop
      vertex 2.979248e+00 -2.294425e+01 1.089790e+01
      vertex 2.619786e+00 -2.038534e+01 1.176572e+01
      vertex 2.979248e+00 -2.038534e+01 1.089790e+01
    endloop
  endfacet
  facet normal -7.933533e-01 -0.000000e+00 -6.087614e-01
    outer loop
      vertex 2.047970e+00 -2.038534e+01 1.251092e+01
      vertex 2.619786e+00 -2.294425e+01 1.176572e+01
      vertex 2.047970e+00 -2.294425e+01 1.251092e+01
    endloop
  endfacet
  facet normal -7.933533e-01 -0.000000e+00 -6.087614e-01
    outer loop
      vertex 2.619786e+00 -2.294425e+01 1.176572e+01
      vertex 2.047970e+00 -2.038534e+01 1.251092e+01
      vertex 2.619786e+00 -2.038534e+01 1.176572e+01
    endloop
  endfacet
  facet normal -6.087614e-01 -0.000000e+00 -7.933533e-01
    outer loop
      vertex 2.047970e+00 -2.038534e+01 1.251092e+01
      vertex 1.302764e+00 -2.294425e+01 1.308274e+01
      vertex 1.302764e+00 -2.038534e+01 1.308274e+01
    endloop
  endfacet
  facet normal -6.087614e-01 -0.000000e+00 -7.933533e-01
    outer loop
      vertex 1.302764e+00 -2.294425e+01 1.308274e+01
      vertex 2.047970e+00 -2.038534e+01 1.251092e+01
      vertex 2.047970e+00 -2.294425e+01 1.251092e+01
    endloop
  endfacet
  facet normal -3.826834e-01 -0.000000e+00 -9.238795e-01
    outer loop
      vertex 1.302764e+00 -2.038534e+01 1.308274e+01
      vertex 4.349510e-01 -2.294425e+01 1.344220e+01
      vertex 4.349510e-01 -2.038534e+01 1.344220e+01
    endloop
  endfacet
  facet normal -3.826834e-01 -0.000000e+00 -9.238795e-01
    outer loop
      vertex 4.349510e-01 -2.294425e+01 1.344220e+01
      vertex 1.302764e+00 -2.038534e+01 1.308274e+01
      vertex 1.302764e+00 -2.294425e+01 1.308274e+01
    endloop
  endfacet
  facet normal -1.305262e-01 -0.000000e+00 -9.914448e-01
    outer loop
      vertex 4.349510e-01 -2.038534e+01 1.344220e+01
      vertex -4.963269e-01 -2.294425e+01 1.356481e+01
      vertex -4.963269e-01 -2.038534e+01 1.356481e+01
    endloop
  endfacet
  facet normal -1.305262e-01 -0.000000e+00 -9.914448e-01
    outer loop
      vertex -4.963269e-01 -2.294425e+01 1.356481e+01
      vertex 4.349510e-01 -2.038534e+01 1.344220e+01
      vertex 4.349510e-01 -2.294425e+01 1.344220e+01
    endloop
  endfacet
  facet normal 1.305262e-01 0.000000e+00 -9.914448e-01
    outer loop
      vertex -4.963269e-01 -2.038534e+01 1.356481e+01
      vertex -1.427605e+00 -2.294425e+01 1.344220e+01
      vertex -1.427605e+00 -2.038534e+01 1.344220e+01
    endloop
  endfacet
  facet normal 1.305262e-01 0.000000e+00 -9.914448e-01
    outer loop
      vertex -1.427605e+00 -2.294425e+01 1.344220e+01
      vertex -4.963269e-01 -2.038534e+01 1.356481e+01
      vertex -4.963269e-01 -2.294425e+01 1.356481e+01
    endloop
  endfacet
  facet normal 3.826834e-01 0.000000e+00 -9.238795e-01
    outer loop
      vertex -1.427605e+00 -2.038534e+01 1.344220e+01
      vertex -2.295418e+00 -2.294425e+01 1.308274e+01
      vertex -2.295418e+00 -2.038534e+01 1.308274e+01
    endloop
  endfacet
  facet normal 3.826834e-01 0.000000e+00 -9.238795e-01
    outer loop
      vertex -2.295418e+00 -2.294425e+01 1.308274e+01
      vertex -1.427605e+00 -2.038534e+01 1.344220e+01
      vertex -1.427605e+00 -2.294425e+01 1.344220e+01
    endloop
  endfacet
  facet normal 6.087614e-01 0.000000e+00 -7.933533e-01
    outer loop
      vertex -2.295418e+00 -2.038534e+01 1.308274e+01
      vertex -3.040624e+00 -2.294425e+01 1.251092e+01
      vertex -3.040624e+00 -2.038534e+01 1.251092e+01
    endloop
  endfacet
  facet normal 6.087614e-01 0.000000e+00 -7.933533e-01
    outer loop
      vertex -3.040624e+00 -2.294425e+01 1.251092e+01
      vertex -2.295418e+00 -2.038534e+01 1.308274e+01
      vertex -2.295418e+00 -2.294425e+01 1.308274e+01
    endloop
  endfacet
  facet normal 7.933533e-01 0.000000e+00 -6.087614e-01
    outer loop
      vertex -3.612440e+00 -2.038534e+01 1.176572e+01
      vertex -3.040624e+00 -2.294425e+01 1.251092e+01
      vertex -3.612440e+00 -2.294425e+01 1.176572e+01
    endloop
  endfacet
  facet normal 7.933533e-01 0.000000e+00 -6.087614e-01
    outer loop
      vertex -3.040624e+00 -2.294425e+01 1.251092e+01
      vertex -3.612440e+00 -2.038534e+01 1.176572e+01
      vertex -3.040624e+00 -2.038534e+01 1.251092e+01
    endloop
  endfacet
endsolid Default
